<mxfile host="app.diagrams.net" agent="Mozilla/5.0 (Macintosh; Intel Mac OS X 10_15_7) AppleWebKit/537.36 (KHTML, like Gecko) Chrome/138.0.0.0 Safari/537.36" version="26.2.14" pages="2">
  <diagram id="C5RBs43oDa-KdzZeNtuy" name="Page-1">
    <mxGraphModel dx="2177" dy="2619" grid="1" gridSize="10" guides="1" tooltips="1" connect="1" arrows="1" fold="1" page="1" pageScale="1" pageWidth="827" pageHeight="1169" math="0" shadow="0">
      <root>
        <mxCell id="WIyWlLk6GJQsqaUBKTNV-0" />
        <mxCell id="WIyWlLk6GJQsqaUBKTNV-1" parent="WIyWlLk6GJQsqaUBKTNV-0" />
        <mxCell id="V308VD3-3qh-6R2pMtBc-0" value="" style="ellipse;html=1;shape=startState;fillColor=#000000;strokeColor=#ff0000;" vertex="1" parent="WIyWlLk6GJQsqaUBKTNV-1">
          <mxGeometry x="105" y="-220" width="30" height="30" as="geometry" />
        </mxCell>
        <mxCell id="V308VD3-3qh-6R2pMtBc-1" value="" style="edgeStyle=orthogonalEdgeStyle;html=1;verticalAlign=bottom;endArrow=open;endSize=8;strokeColor=#ff0000;rounded=0;" edge="1" source="V308VD3-3qh-6R2pMtBc-0" parent="WIyWlLk6GJQsqaUBKTNV-1" target="V308VD3-3qh-6R2pMtBc-82">
          <mxGeometry relative="1" as="geometry">
            <mxPoint x="0.11999999999989086" y="127.19999999999993" as="targetPoint" />
          </mxGeometry>
        </mxCell>
        <mxCell id="V308VD3-3qh-6R2pMtBc-9" value="no" style="edgeStyle=orthogonalEdgeStyle;html=1;align=left;verticalAlign=bottom;endArrow=open;endSize=8;strokeColor=#ff0000;rounded=0;entryX=0.5;entryY=0;entryDx=0;entryDy=0;" edge="1" parent="WIyWlLk6GJQsqaUBKTNV-1" target="V308VD3-3qh-6R2pMtBc-15">
          <mxGeometry x="-1" relative="1" as="geometry">
            <mxPoint x="431" y="270" as="targetPoint" />
            <mxPoint x="249.99999999999966" y="300.0000000000001" as="sourcePoint" />
          </mxGeometry>
        </mxCell>
        <mxCell id="V308VD3-3qh-6R2pMtBc-19" value="Wifi Connected?" style="rhombus;whiteSpace=wrap;html=1;fontColor=#000000;fillColor=#ffffc0;strokeColor=#ff0000;" vertex="1" parent="WIyWlLk6GJQsqaUBKTNV-1">
          <mxGeometry x="80" y="150" width="80" height="40" as="geometry" />
        </mxCell>
        <mxCell id="V308VD3-3qh-6R2pMtBc-20" value="no" style="edgeStyle=orthogonalEdgeStyle;html=1;align=left;verticalAlign=bottom;endArrow=open;endSize=8;strokeColor=#ff0000;rounded=0;entryX=0;entryY=0.5;entryDx=0;entryDy=0;" edge="1" source="V308VD3-3qh-6R2pMtBc-19" parent="WIyWlLk6GJQsqaUBKTNV-1" target="V308VD3-3qh-6R2pMtBc-24">
          <mxGeometry x="-1" relative="1" as="geometry">
            <mxPoint x="260" y="170" as="targetPoint" />
          </mxGeometry>
        </mxCell>
        <mxCell id="V308VD3-3qh-6R2pMtBc-21" value="yes" style="edgeStyle=orthogonalEdgeStyle;html=1;align=left;verticalAlign=top;endArrow=open;endSize=8;strokeColor=#ff0000;rounded=0;entryX=0.5;entryY=0;entryDx=0;entryDy=0;" edge="1" source="V308VD3-3qh-6R2pMtBc-19" parent="WIyWlLk6GJQsqaUBKTNV-1" target="V308VD3-3qh-6R2pMtBc-30">
          <mxGeometry x="-1" relative="1" as="geometry">
            <mxPoint x="50" y="300" as="targetPoint" />
          </mxGeometry>
        </mxCell>
        <mxCell id="V308VD3-3qh-6R2pMtBc-22" value="Connect Wifi" style="rounded=1;whiteSpace=wrap;html=1;arcSize=40;fontColor=#000000;fillColor=#ffffc0;strokeColor=#ff0000;" vertex="1" parent="WIyWlLk6GJQsqaUBKTNV-1">
          <mxGeometry x="200" y="110" width="120" height="40" as="geometry" />
        </mxCell>
        <mxCell id="V308VD3-3qh-6R2pMtBc-23" value="" style="edgeStyle=orthogonalEdgeStyle;html=1;verticalAlign=bottom;endArrow=open;endSize=8;strokeColor=#ff0000;rounded=0;entryX=0.5;entryY=0;entryDx=0;entryDy=0;" edge="1" source="V308VD3-3qh-6R2pMtBc-22" parent="WIyWlLk6GJQsqaUBKTNV-1" target="V308VD3-3qh-6R2pMtBc-19">
          <mxGeometry relative="1" as="geometry">
            <mxPoint x="220" y="400" as="targetPoint" />
          </mxGeometry>
        </mxCell>
        <mxCell id="V308VD3-3qh-6R2pMtBc-24" value="Timeout?" style="rhombus;whiteSpace=wrap;html=1;fontColor=#000000;fillColor=#ffffc0;strokeColor=#ff0000;" vertex="1" parent="WIyWlLk6GJQsqaUBKTNV-1">
          <mxGeometry x="290" y="150" width="80" height="40" as="geometry" />
        </mxCell>
        <mxCell id="V308VD3-3qh-6R2pMtBc-25" value="no" style="edgeStyle=orthogonalEdgeStyle;html=1;align=left;verticalAlign=bottom;endArrow=open;endSize=8;strokeColor=#ff0000;rounded=0;entryX=0.5;entryY=0;entryDx=0;entryDy=0;exitX=0.5;exitY=0;exitDx=0;exitDy=0;" edge="1" source="V308VD3-3qh-6R2pMtBc-24" parent="WIyWlLk6GJQsqaUBKTNV-1" target="V308VD3-3qh-6R2pMtBc-22">
          <mxGeometry x="-0.3997" y="-5" relative="1" as="geometry">
            <mxPoint x="460" y="230" as="targetPoint" />
            <mxPoint x="360" y="230" as="sourcePoint" />
            <Array as="points">
              <mxPoint x="340" y="90" />
              <mxPoint x="270" y="90" />
            </Array>
            <mxPoint as="offset" />
          </mxGeometry>
        </mxCell>
        <mxCell id="V308VD3-3qh-6R2pMtBc-26" value="yes" style="edgeStyle=orthogonalEdgeStyle;html=1;align=left;verticalAlign=top;endArrow=open;endSize=8;strokeColor=#ff0000;rounded=0;exitX=1;exitY=0.5;exitDx=0;exitDy=0;entryX=0.5;entryY=0;entryDx=0;entryDy=0;" edge="1" source="V308VD3-3qh-6R2pMtBc-24" parent="WIyWlLk6GJQsqaUBKTNV-1" target="V308VD3-3qh-6R2pMtBc-27">
          <mxGeometry x="-0.6696" relative="1" as="geometry">
            <mxPoint x="320" y="310" as="targetPoint" />
            <mxPoint as="offset" />
          </mxGeometry>
        </mxCell>
        <mxCell id="V308VD3-3qh-6R2pMtBc-27" value="" style="ellipse;html=1;shape=endState;fillColor=#000000;strokeColor=#ff0000;" vertex="1" parent="WIyWlLk6GJQsqaUBKTNV-1">
          <mxGeometry x="530" y="310" width="30" height="30" as="geometry" />
        </mxCell>
        <mxCell id="V308VD3-3qh-6R2pMtBc-30" value="MQTT Connected?" style="rhombus;whiteSpace=wrap;html=1;fontColor=#000000;fillColor=#ffffc0;strokeColor=#ff0000;" vertex="1" parent="WIyWlLk6GJQsqaUBKTNV-1">
          <mxGeometry x="80" y="270" width="80" height="40" as="geometry" />
        </mxCell>
        <mxCell id="V308VD3-3qh-6R2pMtBc-31" value="no" style="edgeStyle=orthogonalEdgeStyle;html=1;align=left;verticalAlign=bottom;endArrow=open;endSize=8;strokeColor=#ff0000;rounded=0;entryX=0;entryY=0.5;entryDx=0;entryDy=0;" edge="1" parent="WIyWlLk6GJQsqaUBKTNV-1" source="V308VD3-3qh-6R2pMtBc-30" target="V308VD3-3qh-6R2pMtBc-35">
          <mxGeometry x="-1" relative="1" as="geometry">
            <mxPoint x="260" y="290" as="targetPoint" />
          </mxGeometry>
        </mxCell>
        <mxCell id="V308VD3-3qh-6R2pMtBc-32" value="yes" style="edgeStyle=orthogonalEdgeStyle;html=1;align=left;verticalAlign=top;endArrow=open;endSize=8;strokeColor=#ff0000;rounded=0;entryX=0.5;entryY=0;entryDx=0;entryDy=0;" edge="1" parent="WIyWlLk6GJQsqaUBKTNV-1" source="V308VD3-3qh-6R2pMtBc-30" target="V308VD3-3qh-6R2pMtBc-87">
          <mxGeometry x="-1" relative="1" as="geometry">
            <mxPoint x="120" y="370" as="targetPoint" />
          </mxGeometry>
        </mxCell>
        <mxCell id="V308VD3-3qh-6R2pMtBc-33" value="Connect MQTT" style="rounded=1;whiteSpace=wrap;html=1;arcSize=40;fontColor=#000000;fillColor=#ffffc0;strokeColor=#ff0000;" vertex="1" parent="WIyWlLk6GJQsqaUBKTNV-1">
          <mxGeometry x="200" y="230" width="120" height="40" as="geometry" />
        </mxCell>
        <mxCell id="V308VD3-3qh-6R2pMtBc-34" value="" style="edgeStyle=orthogonalEdgeStyle;html=1;verticalAlign=bottom;endArrow=open;endSize=8;strokeColor=#ff0000;rounded=0;entryX=0.5;entryY=0;entryDx=0;entryDy=0;" edge="1" parent="WIyWlLk6GJQsqaUBKTNV-1" source="V308VD3-3qh-6R2pMtBc-33" target="V308VD3-3qh-6R2pMtBc-30">
          <mxGeometry relative="1" as="geometry">
            <mxPoint x="220" y="520" as="targetPoint" />
          </mxGeometry>
        </mxCell>
        <mxCell id="V308VD3-3qh-6R2pMtBc-37" style="edgeStyle=orthogonalEdgeStyle;rounded=0;orthogonalLoop=1;jettySize=auto;html=1;exitX=1;exitY=0.5;exitDx=0;exitDy=0;entryX=0.5;entryY=0;entryDx=0;entryDy=0;strokeColor=light-dark(#ff0000, #ededed);" edge="1" parent="WIyWlLk6GJQsqaUBKTNV-1" source="V308VD3-3qh-6R2pMtBc-35" target="V308VD3-3qh-6R2pMtBc-27">
          <mxGeometry relative="1" as="geometry" />
        </mxCell>
        <mxCell id="V308VD3-3qh-6R2pMtBc-38" value="yes" style="edgeLabel;html=1;align=center;verticalAlign=middle;resizable=0;points=[];" vertex="1" connectable="0" parent="V308VD3-3qh-6R2pMtBc-37">
          <mxGeometry x="-0.0154" relative="1" as="geometry">
            <mxPoint as="offset" />
          </mxGeometry>
        </mxCell>
        <mxCell id="V308VD3-3qh-6R2pMtBc-35" value="Timeout?" style="rhombus;whiteSpace=wrap;html=1;fontColor=#000000;fillColor=#ffffc0;strokeColor=#ff0000;" vertex="1" parent="WIyWlLk6GJQsqaUBKTNV-1">
          <mxGeometry x="290" y="270" width="80" height="40" as="geometry" />
        </mxCell>
        <mxCell id="V308VD3-3qh-6R2pMtBc-36" value="no" style="edgeStyle=orthogonalEdgeStyle;html=1;align=left;verticalAlign=bottom;endArrow=open;endSize=8;strokeColor=#ff0000;rounded=0;entryX=0.5;entryY=0;entryDx=0;entryDy=0;exitX=0.5;exitY=0;exitDx=0;exitDy=0;" edge="1" parent="WIyWlLk6GJQsqaUBKTNV-1" source="V308VD3-3qh-6R2pMtBc-35" target="V308VD3-3qh-6R2pMtBc-33">
          <mxGeometry x="-0.3997" y="-5" relative="1" as="geometry">
            <mxPoint x="460" y="350" as="targetPoint" />
            <mxPoint x="360" y="350" as="sourcePoint" />
            <mxPoint as="offset" />
            <Array as="points">
              <mxPoint x="340" y="210" />
              <mxPoint x="270" y="210" />
            </Array>
          </mxGeometry>
        </mxCell>
        <mxCell id="V308VD3-3qh-6R2pMtBc-40" value="Send Button Press" style="rounded=1;whiteSpace=wrap;html=1;arcSize=40;fontColor=#000000;fillColor=#ffffc0;strokeColor=#ff0000;" vertex="1" parent="WIyWlLk6GJQsqaUBKTNV-1">
          <mxGeometry x="200" y="350" width="120" height="40" as="geometry" />
        </mxCell>
        <mxCell id="V308VD3-3qh-6R2pMtBc-41" value="" style="edgeStyle=orthogonalEdgeStyle;html=1;verticalAlign=bottom;endArrow=open;endSize=8;strokeColor=#ff0000;rounded=0;entryX=0.5;entryY=0;entryDx=0;entryDy=0;exitX=0.5;exitY=1;exitDx=0;exitDy=0;" edge="1" source="V308VD3-3qh-6R2pMtBc-40" parent="WIyWlLk6GJQsqaUBKTNV-1" target="V308VD3-3qh-6R2pMtBc-93">
          <mxGeometry relative="1" as="geometry">
            <mxPoint x="120" y="480" as="targetPoint" />
          </mxGeometry>
        </mxCell>
        <mxCell id="V308VD3-3qh-6R2pMtBc-42" value="Subscribe to MQTT" style="rounded=1;whiteSpace=wrap;html=1;arcSize=40;fontColor=#000000;fillColor=#ffffc0;strokeColor=#ff0000;" vertex="1" parent="WIyWlLk6GJQsqaUBKTNV-1">
          <mxGeometry x="60" y="600" width="120" height="40" as="geometry" />
        </mxCell>
        <mxCell id="V308VD3-3qh-6R2pMtBc-43" value="" style="edgeStyle=orthogonalEdgeStyle;html=1;verticalAlign=bottom;endArrow=open;endSize=8;strokeColor=#ff0000;rounded=0;entryX=0.5;entryY=0;entryDx=0;entryDy=0;" edge="1" source="V308VD3-3qh-6R2pMtBc-42" parent="WIyWlLk6GJQsqaUBKTNV-1" target="V308VD3-3qh-6R2pMtBc-44">
          <mxGeometry relative="1" as="geometry">
            <mxPoint x="120" y="760" as="targetPoint" />
          </mxGeometry>
        </mxCell>
        <mxCell id="V308VD3-3qh-6R2pMtBc-44" value="Check Commands" style="rounded=1;whiteSpace=wrap;html=1;arcSize=40;fontColor=#000000;fillColor=#ffffc0;strokeColor=#ff0000;" vertex="1" parent="WIyWlLk6GJQsqaUBKTNV-1">
          <mxGeometry x="60" y="660" width="120" height="40" as="geometry" />
        </mxCell>
        <mxCell id="V308VD3-3qh-6R2pMtBc-45" value="" style="edgeStyle=orthogonalEdgeStyle;html=1;verticalAlign=bottom;endArrow=open;endSize=8;strokeColor=#ff0000;rounded=0;entryX=0.5;entryY=0;entryDx=0;entryDy=0;" edge="1" source="V308VD3-3qh-6R2pMtBc-44" parent="WIyWlLk6GJQsqaUBKTNV-1" target="V308VD3-3qh-6R2pMtBc-46">
          <mxGeometry relative="1" as="geometry">
            <mxPoint x="120" y="870" as="targetPoint" />
          </mxGeometry>
        </mxCell>
        <mxCell id="V308VD3-3qh-6R2pMtBc-46" value="Commands Available?" style="rhombus;whiteSpace=wrap;html=1;fontColor=#000000;fillColor=#ffffc0;strokeColor=#ff0000;" vertex="1" parent="WIyWlLk6GJQsqaUBKTNV-1">
          <mxGeometry x="80" y="720" width="80" height="40" as="geometry" />
        </mxCell>
        <mxCell id="V308VD3-3qh-6R2pMtBc-47" value="no" style="edgeStyle=orthogonalEdgeStyle;html=1;align=left;verticalAlign=bottom;endArrow=open;endSize=8;strokeColor=#ff0000;rounded=0;exitX=0;exitY=0.5;exitDx=0;exitDy=0;entryX=0.5;entryY=0;entryDx=0;entryDy=0;" edge="1" source="V308VD3-3qh-6R2pMtBc-46" parent="WIyWlLk6GJQsqaUBKTNV-1" target="V308VD3-3qh-6R2pMtBc-61">
          <mxGeometry x="-0.8919" relative="1" as="geometry">
            <mxPoint x="260" y="740" as="targetPoint" />
            <Array as="points">
              <mxPoint x="50" y="740" />
              <mxPoint x="50" y="1030" />
              <mxPoint x="120" y="1030" />
            </Array>
            <mxPoint as="offset" />
          </mxGeometry>
        </mxCell>
        <mxCell id="V308VD3-3qh-6R2pMtBc-48" value="yes" style="edgeStyle=orthogonalEdgeStyle;html=1;align=left;verticalAlign=top;endArrow=open;endSize=8;strokeColor=#ff0000;rounded=0;entryX=0.5;entryY=0;entryDx=0;entryDy=0;" edge="1" source="V308VD3-3qh-6R2pMtBc-46" parent="WIyWlLk6GJQsqaUBKTNV-1" target="V308VD3-3qh-6R2pMtBc-51">
          <mxGeometry x="-1" relative="1" as="geometry">
            <mxPoint x="120" y="820" as="targetPoint" />
          </mxGeometry>
        </mxCell>
        <mxCell id="V308VD3-3qh-6R2pMtBc-49" value="Update Flash (Color)" style="rounded=1;whiteSpace=wrap;html=1;arcSize=40;fontColor=#000000;fillColor=#ffffc0;strokeColor=#ff0000;" vertex="1" parent="WIyWlLk6GJQsqaUBKTNV-1">
          <mxGeometry x="200" y="810" width="120" height="40" as="geometry" />
        </mxCell>
        <mxCell id="V308VD3-3qh-6R2pMtBc-50" value="" style="edgeStyle=orthogonalEdgeStyle;html=1;verticalAlign=bottom;endArrow=open;endSize=8;strokeColor=#ff0000;rounded=0;entryX=0.5;entryY=0;entryDx=0;entryDy=0;exitX=0.5;exitY=1;exitDx=0;exitDy=0;" edge="1" source="V308VD3-3qh-6R2pMtBc-49" parent="WIyWlLk6GJQsqaUBKTNV-1" target="V308VD3-3qh-6R2pMtBc-98">
          <mxGeometry relative="1" as="geometry">
            <mxPoint x="460" y="910" as="targetPoint" />
          </mxGeometry>
        </mxCell>
        <mxCell id="V308VD3-3qh-6R2pMtBc-51" value="Color Update Available" style="rhombus;whiteSpace=wrap;html=1;fontColor=#000000;fillColor=#ffffc0;strokeColor=#ff0000;" vertex="1" parent="WIyWlLk6GJQsqaUBKTNV-1">
          <mxGeometry x="80" y="810" width="80" height="40" as="geometry" />
        </mxCell>
        <mxCell id="V308VD3-3qh-6R2pMtBc-52" value="no" style="edgeStyle=orthogonalEdgeStyle;html=1;align=left;verticalAlign=bottom;endArrow=open;endSize=8;strokeColor=#ff0000;rounded=0;exitX=0.5;exitY=1;exitDx=0;exitDy=0;entryX=0.5;entryY=0;entryDx=0;entryDy=0;" edge="1" source="V308VD3-3qh-6R2pMtBc-51" parent="WIyWlLk6GJQsqaUBKTNV-1" target="V308VD3-3qh-6R2pMtBc-54">
          <mxGeometry x="0.2081" relative="1" as="geometry">
            <mxPoint x="120" y="900" as="targetPoint" />
            <mxPoint as="offset" />
          </mxGeometry>
        </mxCell>
        <mxCell id="V308VD3-3qh-6R2pMtBc-53" value="yes" style="edgeStyle=orthogonalEdgeStyle;html=1;align=left;verticalAlign=top;endArrow=open;endSize=8;strokeColor=#ff0000;rounded=0;entryX=0;entryY=0.5;entryDx=0;entryDy=0;" edge="1" source="V308VD3-3qh-6R2pMtBc-51" parent="WIyWlLk6GJQsqaUBKTNV-1" target="V308VD3-3qh-6R2pMtBc-49">
          <mxGeometry x="-1" relative="1" as="geometry">
            <mxPoint x="120" y="930" as="targetPoint" />
            <mxPoint as="offset" />
          </mxGeometry>
        </mxCell>
        <mxCell id="V308VD3-3qh-6R2pMtBc-54" value="Brightness Update Available" style="rhombus;whiteSpace=wrap;html=1;fontColor=#000000;fillColor=#ffffc0;strokeColor=#ff0000;" vertex="1" parent="WIyWlLk6GJQsqaUBKTNV-1">
          <mxGeometry x="80" y="940" width="80" height="40" as="geometry" />
        </mxCell>
        <mxCell id="V308VD3-3qh-6R2pMtBc-55" value="yes" style="edgeStyle=orthogonalEdgeStyle;html=1;align=left;verticalAlign=bottom;endArrow=open;endSize=8;strokeColor=#ff0000;rounded=0;entryX=0;entryY=0.5;entryDx=0;entryDy=0;" edge="1" source="V308VD3-3qh-6R2pMtBc-54" parent="WIyWlLk6GJQsqaUBKTNV-1" target="V308VD3-3qh-6R2pMtBc-58">
          <mxGeometry x="-1" relative="1" as="geometry">
            <mxPoint x="260" y="1000" as="targetPoint" />
          </mxGeometry>
        </mxCell>
        <mxCell id="V308VD3-3qh-6R2pMtBc-56" value="no" style="edgeStyle=orthogonalEdgeStyle;html=1;align=left;verticalAlign=top;endArrow=open;endSize=8;strokeColor=#ff0000;rounded=0;entryX=0.5;entryY=0;entryDx=0;entryDy=0;" edge="1" source="V308VD3-3qh-6R2pMtBc-54" parent="WIyWlLk6GJQsqaUBKTNV-1" target="V308VD3-3qh-6R2pMtBc-61">
          <mxGeometry x="-1" relative="1" as="geometry">
            <mxPoint x="120" y="1080" as="targetPoint" />
          </mxGeometry>
        </mxCell>
        <mxCell id="V308VD3-3qh-6R2pMtBc-58" value="Update Flash (Color)" style="rounded=1;whiteSpace=wrap;html=1;arcSize=40;fontColor=#000000;fillColor=#ffffc0;strokeColor=#ff0000;" vertex="1" parent="WIyWlLk6GJQsqaUBKTNV-1">
          <mxGeometry x="200" y="940" width="120" height="40" as="geometry" />
        </mxCell>
        <mxCell id="V308VD3-3qh-6R2pMtBc-59" value="" style="edgeStyle=orthogonalEdgeStyle;html=1;verticalAlign=bottom;endArrow=open;endSize=8;strokeColor=#ff0000;rounded=0;entryX=0.5;entryY=0;entryDx=0;entryDy=0;exitX=0.5;exitY=1;exitDx=0;exitDy=0;" edge="1" parent="WIyWlLk6GJQsqaUBKTNV-1" source="V308VD3-3qh-6R2pMtBc-58" target="V308VD3-3qh-6R2pMtBc-100">
          <mxGeometry relative="1" as="geometry">
            <mxPoint x="140" y="1110" as="targetPoint" />
            <mxPoint x="310" y="1030" as="sourcePoint" />
          </mxGeometry>
        </mxCell>
        <mxCell id="V308VD3-3qh-6R2pMtBc-61" value="Discovery Message On Server?" style="rhombus;whiteSpace=wrap;html=1;fontColor=#000000;fillColor=#ffffc0;strokeColor=#ff0000;" vertex="1" parent="WIyWlLk6GJQsqaUBKTNV-1">
          <mxGeometry x="80" y="1110" width="80" height="40" as="geometry" />
        </mxCell>
        <mxCell id="V308VD3-3qh-6R2pMtBc-62" value="no" style="edgeStyle=orthogonalEdgeStyle;html=1;align=left;verticalAlign=bottom;endArrow=open;endSize=8;strokeColor=#ff0000;rounded=0;entryX=0;entryY=0.5;entryDx=0;entryDy=0;" edge="1" source="V308VD3-3qh-6R2pMtBc-61" parent="WIyWlLk6GJQsqaUBKTNV-1" target="V308VD3-3qh-6R2pMtBc-64">
          <mxGeometry x="-1" relative="1" as="geometry">
            <mxPoint x="260" y="1160" as="targetPoint" />
          </mxGeometry>
        </mxCell>
        <mxCell id="V308VD3-3qh-6R2pMtBc-63" value="yes" style="edgeStyle=orthogonalEdgeStyle;html=1;align=left;verticalAlign=top;endArrow=open;endSize=8;strokeColor=#ff0000;rounded=0;entryX=0.5;entryY=0;entryDx=0;entryDy=0;" edge="1" source="V308VD3-3qh-6R2pMtBc-61" parent="WIyWlLk6GJQsqaUBKTNV-1" target="V308VD3-3qh-6R2pMtBc-66">
          <mxGeometry x="-1" relative="1" as="geometry">
            <mxPoint x="120" y="1240" as="targetPoint" />
          </mxGeometry>
        </mxCell>
        <mxCell id="V308VD3-3qh-6R2pMtBc-64" value="Send Discovery Message" style="rounded=1;whiteSpace=wrap;html=1;arcSize=40;fontColor=#000000;fillColor=#ffffc0;strokeColor=#ff0000;" vertex="1" parent="WIyWlLk6GJQsqaUBKTNV-1">
          <mxGeometry x="200" y="1110" width="120" height="40" as="geometry" />
        </mxCell>
        <mxCell id="V308VD3-3qh-6R2pMtBc-65" value="" style="edgeStyle=orthogonalEdgeStyle;html=1;verticalAlign=bottom;endArrow=open;endSize=8;strokeColor=#ff0000;rounded=0;entryX=1;entryY=0.5;entryDx=0;entryDy=0;exitX=0.5;exitY=1;exitDx=0;exitDy=0;" edge="1" source="V308VD3-3qh-6R2pMtBc-64" parent="WIyWlLk6GJQsqaUBKTNV-1" target="V308VD3-3qh-6R2pMtBc-66">
          <mxGeometry relative="1" as="geometry">
            <mxPoint x="260" y="1270" as="targetPoint" />
            <Array as="points">
              <mxPoint x="260" y="1200" />
            </Array>
          </mxGeometry>
        </mxCell>
        <mxCell id="V308VD3-3qh-6R2pMtBc-66" value="Publish State" style="rounded=1;whiteSpace=wrap;html=1;arcSize=40;fontColor=#000000;fillColor=#ffffc0;strokeColor=#ff0000;" vertex="1" parent="WIyWlLk6GJQsqaUBKTNV-1">
          <mxGeometry x="60" y="1180" width="120" height="40" as="geometry" />
        </mxCell>
        <mxCell id="V308VD3-3qh-6R2pMtBc-67" value="" style="edgeStyle=orthogonalEdgeStyle;html=1;verticalAlign=bottom;endArrow=open;endSize=8;strokeColor=#ff0000;rounded=0;entryX=0.5;entryY=0;entryDx=0;entryDy=0;" edge="1" source="V308VD3-3qh-6R2pMtBc-66" parent="WIyWlLk6GJQsqaUBKTNV-1" target="V308VD3-3qh-6R2pMtBc-68">
          <mxGeometry relative="1" as="geometry">
            <mxPoint x="120" y="1340" as="targetPoint" />
          </mxGeometry>
        </mxCell>
        <mxCell id="V308VD3-3qh-6R2pMtBc-68" value="Prevent Sleep?" style="rhombus;whiteSpace=wrap;html=1;fontColor=#000000;fillColor=#ffffc0;strokeColor=#ff0000;" vertex="1" parent="WIyWlLk6GJQsqaUBKTNV-1">
          <mxGeometry x="80" y="1250" width="80" height="40" as="geometry" />
        </mxCell>
        <mxCell id="V308VD3-3qh-6R2pMtBc-69" value="yes" style="edgeStyle=orthogonalEdgeStyle;html=1;align=left;verticalAlign=bottom;endArrow=open;endSize=8;strokeColor=#ff0000;rounded=0;entryX=1;entryY=0.5;entryDx=0;entryDy=0;exitX=1;exitY=0.5;exitDx=0;exitDy=0;" edge="1" source="V308VD3-3qh-6R2pMtBc-68" parent="WIyWlLk6GJQsqaUBKTNV-1" target="V308VD3-3qh-6R2pMtBc-44">
          <mxGeometry x="-0.8319" relative="1" as="geometry">
            <mxPoint x="260" y="1170" as="targetPoint" />
            <Array as="points">
              <mxPoint x="460" y="1270" />
              <mxPoint x="460" y="680" />
            </Array>
            <mxPoint as="offset" />
          </mxGeometry>
        </mxCell>
        <mxCell id="V308VD3-3qh-6R2pMtBc-70" value="no" style="edgeStyle=orthogonalEdgeStyle;html=1;align=left;verticalAlign=top;endArrow=open;endSize=8;strokeColor=#ff0000;rounded=0;entryX=0.5;entryY=0;entryDx=0;entryDy=0;" edge="1" source="V308VD3-3qh-6R2pMtBc-68" parent="WIyWlLk6GJQsqaUBKTNV-1" target="V308VD3-3qh-6R2pMtBc-71">
          <mxGeometry x="-1" relative="1" as="geometry">
            <mxPoint x="120" y="1350" as="targetPoint" />
          </mxGeometry>
        </mxCell>
        <mxCell id="V308VD3-3qh-6R2pMtBc-71" value="Go To Sleep" style="rounded=1;whiteSpace=wrap;html=1;arcSize=40;fontColor=#000000;fillColor=#ffffc0;strokeColor=#ff0000;" vertex="1" parent="WIyWlLk6GJQsqaUBKTNV-1">
          <mxGeometry x="60" y="1360" width="120" height="40" as="geometry" />
        </mxCell>
        <mxCell id="V308VD3-3qh-6R2pMtBc-72" value="" style="edgeStyle=orthogonalEdgeStyle;html=1;verticalAlign=bottom;endArrow=open;endSize=8;strokeColor=#ff0000;rounded=0;entryX=0.5;entryY=0;entryDx=0;entryDy=0;" edge="1" source="V308VD3-3qh-6R2pMtBc-71" parent="WIyWlLk6GJQsqaUBKTNV-1" target="V308VD3-3qh-6R2pMtBc-73">
          <mxGeometry relative="1" as="geometry">
            <mxPoint x="120" y="1460" as="targetPoint" />
          </mxGeometry>
        </mxCell>
        <mxCell id="V308VD3-3qh-6R2pMtBc-73" value="" style="ellipse;html=1;shape=endState;fillColor=#000000;strokeColor=#ff0000;" vertex="1" parent="WIyWlLk6GJQsqaUBKTNV-1">
          <mxGeometry x="105" y="1439" width="30" height="30" as="geometry" />
        </mxCell>
        <mxCell id="V308VD3-3qh-6R2pMtBc-75" value="Attach Button Interrupt" style="rounded=1;whiteSpace=wrap;html=1;arcSize=40;fontColor=#000000;fillColor=#ffffc0;strokeColor=#ff0000;" vertex="1" parent="WIyWlLk6GJQsqaUBKTNV-1">
          <mxGeometry x="200" y="480" width="120" height="40" as="geometry" />
        </mxCell>
        <mxCell id="V308VD3-3qh-6R2pMtBc-76" value="" style="edgeStyle=orthogonalEdgeStyle;html=1;verticalAlign=bottom;endArrow=open;endSize=8;strokeColor=#ff0000;rounded=0;entryX=0.5;entryY=0;entryDx=0;entryDy=0;exitX=0.5;exitY=1;exitDx=0;exitDy=0;" edge="1" source="V308VD3-3qh-6R2pMtBc-75" parent="WIyWlLk6GJQsqaUBKTNV-1" target="V308VD3-3qh-6R2pMtBc-42">
          <mxGeometry relative="1" as="geometry">
            <mxPoint x="170" y="590" as="targetPoint" />
            <Array as="points">
              <mxPoint x="260" y="540" />
              <mxPoint x="120" y="540" />
            </Array>
          </mxGeometry>
        </mxCell>
        <mxCell id="V308VD3-3qh-6R2pMtBc-77" value="Button Interrupt Attached?" style="rhombus;whiteSpace=wrap;html=1;fontColor=#000000;fillColor=#ffffc0;strokeColor=#ff0000;" vertex="1" parent="WIyWlLk6GJQsqaUBKTNV-1">
          <mxGeometry x="80" y="480" width="80" height="40" as="geometry" />
        </mxCell>
        <mxCell id="V308VD3-3qh-6R2pMtBc-78" value="no" style="edgeStyle=orthogonalEdgeStyle;html=1;align=left;verticalAlign=bottom;endArrow=open;endSize=8;strokeColor=#ff0000;rounded=0;entryX=0;entryY=0.5;entryDx=0;entryDy=0;" edge="1" source="V308VD3-3qh-6R2pMtBc-77" parent="WIyWlLk6GJQsqaUBKTNV-1" target="V308VD3-3qh-6R2pMtBc-75">
          <mxGeometry x="-1" relative="1" as="geometry">
            <mxPoint x="470" y="470" as="targetPoint" />
          </mxGeometry>
        </mxCell>
        <mxCell id="V308VD3-3qh-6R2pMtBc-79" value="yes" style="edgeStyle=orthogonalEdgeStyle;html=1;align=left;verticalAlign=top;endArrow=open;endSize=8;strokeColor=#ff0000;rounded=0;entryX=0.5;entryY=0;entryDx=0;entryDy=0;" edge="1" source="V308VD3-3qh-6R2pMtBc-77" parent="WIyWlLk6GJQsqaUBKTNV-1" target="V308VD3-3qh-6R2pMtBc-42">
          <mxGeometry x="-1" relative="1" as="geometry">
            <mxPoint x="330" y="550" as="targetPoint" />
          </mxGeometry>
        </mxCell>
        <mxCell id="V308VD3-3qh-6R2pMtBc-80" value="Turn On LED" style="rounded=1;whiteSpace=wrap;html=1;arcSize=40;fontColor=#000000;fillColor=#ffffc0;strokeColor=#ff0000;" vertex="1" parent="WIyWlLk6GJQsqaUBKTNV-1">
          <mxGeometry x="60" y="30" width="120" height="40" as="geometry" />
        </mxCell>
        <mxCell id="V308VD3-3qh-6R2pMtBc-81" value="" style="edgeStyle=orthogonalEdgeStyle;html=1;verticalAlign=bottom;endArrow=open;endSize=8;strokeColor=#ff0000;rounded=0;" edge="1" source="V308VD3-3qh-6R2pMtBc-80" parent="WIyWlLk6GJQsqaUBKTNV-1">
          <mxGeometry relative="1" as="geometry">
            <mxPoint x="120" y="150" as="targetPoint" />
          </mxGeometry>
        </mxCell>
        <mxCell id="V308VD3-3qh-6R2pMtBc-82" value="Woke up bc of button press?" style="rhombus;whiteSpace=wrap;html=1;fontColor=#000000;fillColor=#ffffc0;strokeColor=#ff0000;" vertex="1" parent="WIyWlLk6GJQsqaUBKTNV-1">
          <mxGeometry x="80" y="-140" width="80" height="40" as="geometry" />
        </mxCell>
        <mxCell id="V308VD3-3qh-6R2pMtBc-83" value="no" style="edgeStyle=orthogonalEdgeStyle;html=1;align=left;verticalAlign=bottom;endArrow=open;endSize=8;strokeColor=#ff0000;rounded=0;entryX=0;entryY=0.5;entryDx=0;entryDy=0;" edge="1" source="V308VD3-3qh-6R2pMtBc-82" parent="WIyWlLk6GJQsqaUBKTNV-1" target="V308VD3-3qh-6R2pMtBc-90">
          <mxGeometry x="-1" relative="1" as="geometry">
            <mxPoint x="260" y="-60" as="targetPoint" />
          </mxGeometry>
        </mxCell>
        <mxCell id="V308VD3-3qh-6R2pMtBc-84" value="yes" style="edgeStyle=orthogonalEdgeStyle;html=1;align=left;verticalAlign=top;endArrow=open;endSize=8;strokeColor=#ff0000;rounded=0;entryX=0.5;entryY=0;entryDx=0;entryDy=0;" edge="1" source="V308VD3-3qh-6R2pMtBc-82" parent="WIyWlLk6GJQsqaUBKTNV-1" target="V308VD3-3qh-6R2pMtBc-85">
          <mxGeometry x="-1" relative="1" as="geometry">
            <mxPoint x="240" y="-110" as="targetPoint" />
          </mxGeometry>
        </mxCell>
        <mxCell id="V308VD3-3qh-6R2pMtBc-85" value="Set Button press flag" style="rounded=1;whiteSpace=wrap;html=1;arcSize=40;fontColor=#000000;fillColor=#ffffc0;strokeColor=#ff0000;" vertex="1" parent="WIyWlLk6GJQsqaUBKTNV-1">
          <mxGeometry x="60" y="-70" width="120" height="40" as="geometry" />
        </mxCell>
        <mxCell id="V308VD3-3qh-6R2pMtBc-86" value="" style="edgeStyle=orthogonalEdgeStyle;html=1;verticalAlign=bottom;endArrow=open;endSize=8;strokeColor=#ff0000;rounded=0;entryX=0.5;entryY=0;entryDx=0;entryDy=0;" edge="1" source="V308VD3-3qh-6R2pMtBc-85" parent="WIyWlLk6GJQsqaUBKTNV-1" target="V308VD3-3qh-6R2pMtBc-80">
          <mxGeometry relative="1" as="geometry">
            <mxPoint x="240" as="targetPoint" />
          </mxGeometry>
        </mxCell>
        <mxCell id="V308VD3-3qh-6R2pMtBc-92" value="Using RTC VARS" style="edgeLabel;html=1;align=center;verticalAlign=middle;resizable=0;points=[];" vertex="1" connectable="0" parent="V308VD3-3qh-6R2pMtBc-86">
          <mxGeometry x="-0.079" relative="1" as="geometry">
            <mxPoint as="offset" />
          </mxGeometry>
        </mxCell>
        <mxCell id="V308VD3-3qh-6R2pMtBc-87" value="Button Press Flag?" style="rhombus;whiteSpace=wrap;html=1;fontColor=#000000;fillColor=#ffffc0;strokeColor=#ff0000;" vertex="1" parent="WIyWlLk6GJQsqaUBKTNV-1">
          <mxGeometry x="80" y="350" width="80" height="40" as="geometry" />
        </mxCell>
        <mxCell id="V308VD3-3qh-6R2pMtBc-88" value="yes" style="edgeStyle=orthogonalEdgeStyle;html=1;align=left;verticalAlign=bottom;endArrow=open;endSize=8;strokeColor=#ff0000;rounded=0;entryX=0;entryY=0.5;entryDx=0;entryDy=0;" edge="1" source="V308VD3-3qh-6R2pMtBc-87" parent="WIyWlLk6GJQsqaUBKTNV-1" target="V308VD3-3qh-6R2pMtBc-40">
          <mxGeometry x="-1" relative="1" as="geometry">
            <mxPoint x="300" y="350" as="targetPoint" />
          </mxGeometry>
        </mxCell>
        <mxCell id="V308VD3-3qh-6R2pMtBc-89" value="no" style="edgeStyle=orthogonalEdgeStyle;html=1;align=left;verticalAlign=top;endArrow=open;endSize=8;strokeColor=#ff0000;rounded=0;entryX=0.5;entryY=0;entryDx=0;entryDy=0;" edge="1" source="V308VD3-3qh-6R2pMtBc-87" parent="WIyWlLk6GJQsqaUBKTNV-1" target="V308VD3-3qh-6R2pMtBc-77">
          <mxGeometry x="-1" relative="1" as="geometry">
            <mxPoint x="160" y="430" as="targetPoint" />
          </mxGeometry>
        </mxCell>
        <mxCell id="V308VD3-3qh-6R2pMtBc-90" value="Load config from flash" style="rounded=1;whiteSpace=wrap;html=1;arcSize=40;fontColor=#000000;fillColor=#ffffc0;strokeColor=#ff0000;" vertex="1" parent="WIyWlLk6GJQsqaUBKTNV-1">
          <mxGeometry x="210" y="-140" width="120" height="40" as="geometry" />
        </mxCell>
        <mxCell id="V308VD3-3qh-6R2pMtBc-91" value="" style="edgeStyle=orthogonalEdgeStyle;html=1;verticalAlign=bottom;endArrow=open;endSize=8;strokeColor=#ff0000;rounded=0;entryX=1;entryY=0.5;entryDx=0;entryDy=0;exitX=0.5;exitY=1;exitDx=0;exitDy=0;" edge="1" source="V308VD3-3qh-6R2pMtBc-90" parent="WIyWlLk6GJQsqaUBKTNV-1" target="V308VD3-3qh-6R2pMtBc-80">
          <mxGeometry relative="1" as="geometry">
            <mxPoint x="450" y="10" as="targetPoint" />
          </mxGeometry>
        </mxCell>
        <mxCell id="V308VD3-3qh-6R2pMtBc-95" value="" style="edgeStyle=orthogonalEdgeStyle;rounded=0;orthogonalLoop=1;jettySize=auto;html=1;" edge="1" parent="WIyWlLk6GJQsqaUBKTNV-1" source="V308VD3-3qh-6R2pMtBc-93">
          <mxGeometry relative="1" as="geometry">
            <mxPoint x="120" y="430" as="targetPoint" />
          </mxGeometry>
        </mxCell>
        <mxCell id="V308VD3-3qh-6R2pMtBc-93" value="Pulse LED" style="rounded=1;whiteSpace=wrap;html=1;arcSize=40;fontColor=#000000;fillColor=#ffffc0;strokeColor=#ff0000;" vertex="1" parent="WIyWlLk6GJQsqaUBKTNV-1">
          <mxGeometry x="200" y="410" width="120" height="40" as="geometry" />
        </mxCell>
        <mxCell id="V308VD3-3qh-6R2pMtBc-94" value="" style="edgeStyle=orthogonalEdgeStyle;html=1;verticalAlign=bottom;endArrow=open;endSize=8;strokeColor=#ff0000;rounded=0;exitX=0;exitY=0.5;exitDx=0;exitDy=0;entryX=0.5;entryY=0;entryDx=0;entryDy=0;" edge="1" source="V308VD3-3qh-6R2pMtBc-93" parent="WIyWlLk6GJQsqaUBKTNV-1" target="V308VD3-3qh-6R2pMtBc-77">
          <mxGeometry relative="1" as="geometry">
            <mxPoint x="420" y="510" as="targetPoint" />
          </mxGeometry>
        </mxCell>
        <mxCell id="V308VD3-3qh-6R2pMtBc-98" value="Pulse LED" style="rounded=1;whiteSpace=wrap;html=1;arcSize=40;fontColor=#000000;fillColor=#ffffc0;strokeColor=#ff0000;" vertex="1" parent="WIyWlLk6GJQsqaUBKTNV-1">
          <mxGeometry x="200" y="870" width="120" height="40" as="geometry" />
        </mxCell>
        <mxCell id="V308VD3-3qh-6R2pMtBc-99" value="" style="edgeStyle=orthogonalEdgeStyle;html=1;verticalAlign=bottom;endArrow=open;endSize=8;strokeColor=#ff0000;rounded=0;entryX=0.5;entryY=0;entryDx=0;entryDy=0;" edge="1" source="V308VD3-3qh-6R2pMtBc-98" parent="WIyWlLk6GJQsqaUBKTNV-1" target="V308VD3-3qh-6R2pMtBc-54">
          <mxGeometry relative="1" as="geometry">
            <mxPoint x="260" y="1000" as="targetPoint" />
          </mxGeometry>
        </mxCell>
        <mxCell id="V308VD3-3qh-6R2pMtBc-100" value="Pulse LED" style="rounded=1;whiteSpace=wrap;html=1;arcSize=40;fontColor=#000000;fillColor=#ffffc0;strokeColor=#ff0000;" vertex="1" parent="WIyWlLk6GJQsqaUBKTNV-1">
          <mxGeometry x="200" y="1000" width="120" height="40" as="geometry" />
        </mxCell>
        <mxCell id="V308VD3-3qh-6R2pMtBc-101" value="" style="edgeStyle=orthogonalEdgeStyle;html=1;verticalAlign=bottom;endArrow=open;endSize=8;strokeColor=#ff0000;rounded=0;entryX=0.5;entryY=0;entryDx=0;entryDy=0;exitX=0.5;exitY=1;exitDx=0;exitDy=0;" edge="1" source="V308VD3-3qh-6R2pMtBc-100" parent="WIyWlLk6GJQsqaUBKTNV-1" target="V308VD3-3qh-6R2pMtBc-61">
          <mxGeometry relative="1" as="geometry">
            <mxPoint x="545" y="1110" as="targetPoint" />
          </mxGeometry>
        </mxCell>
        <mxCell id="V308VD3-3qh-6R2pMtBc-102" value="Button Press ISR Triggered" style="rounded=1;whiteSpace=wrap;html=1;arcSize=40;fontColor=#000000;fillColor=#ffffc0;strokeColor=#ff0000;" vertex="1" parent="WIyWlLk6GJQsqaUBKTNV-1">
          <mxGeometry x="480" y="-140" width="120" height="40" as="geometry" />
        </mxCell>
        <mxCell id="V308VD3-3qh-6R2pMtBc-103" value="" style="edgeStyle=orthogonalEdgeStyle;html=1;verticalAlign=bottom;endArrow=open;endSize=8;strokeColor=#ff0000;rounded=0;" edge="1" source="V308VD3-3qh-6R2pMtBc-102" parent="WIyWlLk6GJQsqaUBKTNV-1" target="V308VD3-3qh-6R2pMtBc-104">
          <mxGeometry relative="1" as="geometry">
            <mxPoint x="540" y="-40" as="targetPoint" />
          </mxGeometry>
        </mxCell>
        <mxCell id="V308VD3-3qh-6R2pMtBc-104" value="Set Button Press Flag" style="rounded=1;whiteSpace=wrap;html=1;arcSize=40;fontColor=#000000;fillColor=#ffffc0;strokeColor=#ff0000;" vertex="1" parent="WIyWlLk6GJQsqaUBKTNV-1">
          <mxGeometry x="480" y="-20" width="120" height="40" as="geometry" />
        </mxCell>
        <mxCell id="V308VD3-3qh-6R2pMtBc-105" value="" style="edgeStyle=orthogonalEdgeStyle;html=1;verticalAlign=bottom;endArrow=open;endSize=8;strokeColor=#ff0000;rounded=0;" edge="1" source="V308VD3-3qh-6R2pMtBc-104" parent="WIyWlLk6GJQsqaUBKTNV-1">
          <mxGeometry relative="1" as="geometry">
            <mxPoint x="540" y="80" as="targetPoint" />
          </mxGeometry>
        </mxCell>
      </root>
    </mxGraphModel>
  </diagram>
  <diagram name="Copy of Page-1" id="lGDjC6vVWdkJt69JOOb_">
    <mxGraphModel dx="3831" dy="1450" grid="1" gridSize="10" guides="1" tooltips="1" connect="1" arrows="1" fold="1" page="1" pageScale="1" pageWidth="827" pageHeight="1169" math="0" shadow="0">
      <root>
        <mxCell id="gu6PSxJLLUpwhg4ktaRB-0" />
        <mxCell id="gu6PSxJLLUpwhg4ktaRB-1" parent="gu6PSxJLLUpwhg4ktaRB-0" />
        <mxCell id="MwV0uVUWhZ64IFKLvypK-2" value="" style="ellipse;html=1;shape=startState;fillColor=#000000;strokeColor=#ff0000;" vertex="1" parent="gu6PSxJLLUpwhg4ktaRB-1">
          <mxGeometry x="-1299.064424951267" y="10" width="80" height="80" as="geometry" />
        </mxCell>
        <mxCell id="MwV0uVUWhZ64IFKLvypK-3" value="" style="edgeStyle=orthogonalEdgeStyle;html=1;verticalAlign=bottom;endArrow=open;endSize=8;strokeColor=#ff0000;rounded=0;entryX=0.5;entryY=0;entryDx=0;entryDy=0;exitX=0.501;exitY=0.945;exitDx=0;exitDy=0;exitPerimeter=0;" edge="1" source="MwV0uVUWhZ64IFKLvypK-2" parent="gu6PSxJLLUpwhg4ktaRB-1" target="MwV0uVUWhZ64IFKLvypK-4">
          <mxGeometry relative="1" as="geometry">
            <mxPoint x="-1259.0623781676413" y="91.44329896907216" as="targetPoint" />
          </mxGeometry>
        </mxCell>
        <mxCell id="MwV0uVUWhZ64IFKLvypK-4" value="&lt;b&gt;Operating State: &lt;/b&gt;Initializing" style="rhombus;whiteSpace=wrap;html=1;fontColor=#000000;fillColor=#ffffc0;strokeColor=#ff0000;" vertex="1" parent="gu6PSxJLLUpwhg4ktaRB-1">
          <mxGeometry x="-1309.6745808966862" y="109.99742268041237" width="100.98440545808967" height="55.567010309278345" as="geometry" />
        </mxCell>
        <mxCell id="MwV0uVUWhZ64IFKLvypK-5" value="yes&lt;div&gt;&lt;br&gt;&lt;/div&gt;" style="edgeStyle=orthogonalEdgeStyle;html=1;align=left;verticalAlign=bottom;endArrow=open;endSize=8;strokeColor=#ff0000;rounded=0;entryX=0.25;entryY=0;entryDx=0;entryDy=0;" edge="1" parent="gu6PSxJLLUpwhg4ktaRB-1" target="MwV0uVUWhZ64IFKLvypK-16">
          <mxGeometry relative="1" as="geometry">
            <mxPoint x="-1122.345029239766" y="166.01030927835052" as="targetPoint" />
            <mxPoint x="-1310" y="137" as="sourcePoint" />
          </mxGeometry>
        </mxCell>
        <mxCell id="MwV0uVUWhZ64IFKLvypK-6" value="no" style="edgeStyle=orthogonalEdgeStyle;html=1;align=left;verticalAlign=top;endArrow=open;endSize=8;strokeColor=#ff0000;rounded=0;entryX=0.5;entryY=0;entryDx=0;entryDy=0;" edge="1" source="MwV0uVUWhZ64IFKLvypK-4" parent="gu6PSxJLLUpwhg4ktaRB-1" target="MwV0uVUWhZ64IFKLvypK-40">
          <mxGeometry x="-1" relative="1" as="geometry">
            <mxPoint x="-1262.946393762183" y="213.63917525773195" as="targetPoint" />
          </mxGeometry>
        </mxCell>
        <mxCell id="MwV0uVUWhZ64IFKLvypK-16" value="INITIALIZING" style="swimlane;whiteSpace=wrap;html=1;" vertex="1" parent="gu6PSxJLLUpwhg4ktaRB-1">
          <mxGeometry x="-1600" y="170" width="262.35" height="265.45" as="geometry">
            <mxRectangle x="-510" y="-200" width="140" height="30" as="alternateBounds" />
          </mxGeometry>
        </mxCell>
        <mxCell id="fqFtTZ34vG14wbRMrud7-117" style="edgeStyle=orthogonalEdgeStyle;rounded=0;orthogonalLoop=1;jettySize=auto;html=1;exitX=0.5;exitY=1;exitDx=0;exitDy=0;entryX=1;entryY=0.5;entryDx=0;entryDy=0;" edge="1" parent="MwV0uVUWhZ64IFKLvypK-16" source="MwV0uVUWhZ64IFKLvypK-27" target="fqFtTZ34vG14wbRMrud7-116">
          <mxGeometry relative="1" as="geometry">
            <Array as="points">
              <mxPoint x="109" y="243" />
              <mxPoint x="42" y="243" />
            </Array>
          </mxGeometry>
        </mxCell>
        <mxCell id="MwV0uVUWhZ64IFKLvypK-27" value="Turn On LED" style="rounded=1;whiteSpace=wrap;html=1;arcSize=40;fontColor=#000000;fillColor=#ffffc0;strokeColor=#ff0000;" vertex="1" parent="MwV0uVUWhZ64IFKLvypK-16">
          <mxGeometry x="62.352124756335286" y="199.67134020618556" width="93.21637426900584" height="31.752577319587626" as="geometry" />
        </mxCell>
        <mxCell id="MwV0uVUWhZ64IFKLvypK-28" value="Woke up bc of button press?" style="rhombus;whiteSpace=wrap;html=1;fontColor=#000000;fillColor=#ffffc0;strokeColor=#ff0000;" vertex="1" parent="MwV0uVUWhZ64IFKLvypK-16">
          <mxGeometry x="68.95818713450292" y="59.674432989690715" width="80" height="50" as="geometry" />
        </mxCell>
        <mxCell id="MwV0uVUWhZ64IFKLvypK-29" value="no" style="edgeStyle=orthogonalEdgeStyle;html=1;align=left;verticalAlign=bottom;endArrow=open;endSize=8;strokeColor=#ff0000;rounded=0;entryX=0;entryY=0.5;entryDx=0;entryDy=0;" edge="1" parent="MwV0uVUWhZ64IFKLvypK-16" source="MwV0uVUWhZ64IFKLvypK-28" target="MwV0uVUWhZ64IFKLvypK-34">
          <mxGeometry x="-0.2125" y="-1" relative="1" as="geometry">
            <mxPoint x="170.89668615984405" y="91.28865979381443" as="targetPoint" />
            <mxPoint as="offset" />
          </mxGeometry>
        </mxCell>
        <mxCell id="MwV0uVUWhZ64IFKLvypK-30" value="yes" style="edgeStyle=orthogonalEdgeStyle;html=1;align=left;verticalAlign=top;endArrow=open;endSize=8;strokeColor=#ff0000;rounded=0;entryX=0.5;entryY=0;entryDx=0;entryDy=0;" edge="1" parent="MwV0uVUWhZ64IFKLvypK-16" source="MwV0uVUWhZ64IFKLvypK-28" target="MwV0uVUWhZ64IFKLvypK-31">
          <mxGeometry x="-1" relative="1" as="geometry">
            <mxPoint x="155.36062378167642" y="51.597938144329895" as="targetPoint" />
          </mxGeometry>
        </mxCell>
        <mxCell id="MwV0uVUWhZ64IFKLvypK-31" value="Set Button press flag" style="rounded=1;whiteSpace=wrap;html=1;arcSize=40;fontColor=#000000;fillColor=#ffffc0;strokeColor=#ff0000;" vertex="1" parent="MwV0uVUWhZ64IFKLvypK-16">
          <mxGeometry x="62.352124756335286" y="139.6743298969072" width="93.21637426900584" height="31.752577319587626" as="geometry" />
        </mxCell>
        <mxCell id="MwV0uVUWhZ64IFKLvypK-32" value="" style="edgeStyle=orthogonalEdgeStyle;html=1;verticalAlign=bottom;endArrow=open;endSize=8;strokeColor=#ff0000;rounded=0;entryX=0.5;entryY=0;entryDx=0;entryDy=0;" edge="1" parent="MwV0uVUWhZ64IFKLvypK-16" source="MwV0uVUWhZ64IFKLvypK-31" target="MwV0uVUWhZ64IFKLvypK-27">
          <mxGeometry relative="1" as="geometry">
            <mxPoint x="155.36062378167642" y="138.91752577319588" as="targetPoint" />
          </mxGeometry>
        </mxCell>
        <mxCell id="MwV0uVUWhZ64IFKLvypK-33" value="Using RTC VARS" style="edgeLabel;html=1;align=center;verticalAlign=middle;resizable=0;points=[];" vertex="1" connectable="0" parent="MwV0uVUWhZ64IFKLvypK-32">
          <mxGeometry x="-0.079" relative="1" as="geometry">
            <mxPoint as="offset" />
          </mxGeometry>
        </mxCell>
        <mxCell id="MwV0uVUWhZ64IFKLvypK-34" value="Load config from flash" style="rounded=1;whiteSpace=wrap;html=1;arcSize=40;fontColor=#000000;fillColor=#ffffc0;strokeColor=#ff0000;" vertex="1" parent="MwV0uVUWhZ64IFKLvypK-16">
          <mxGeometry x="182.35" y="39.510000000000005" width="45.57" height="90.33" as="geometry" />
        </mxCell>
        <mxCell id="MwV0uVUWhZ64IFKLvypK-35" value="" style="edgeStyle=orthogonalEdgeStyle;html=1;verticalAlign=bottom;endArrow=open;endSize=8;strokeColor=#ff0000;rounded=0;entryX=1;entryY=0.5;entryDx=0;entryDy=0;exitX=0.5;exitY=1;exitDx=0;exitDy=0;" edge="1" parent="MwV0uVUWhZ64IFKLvypK-16" source="MwV0uVUWhZ64IFKLvypK-34" target="MwV0uVUWhZ64IFKLvypK-27">
          <mxGeometry relative="1" as="geometry">
            <mxPoint x="318.48927875243663" y="146.85567010309276" as="targetPoint" />
          </mxGeometry>
        </mxCell>
        <mxCell id="fqFtTZ34vG14wbRMrud7-116" value="" style="shape=sumEllipse;perimeter=ellipsePerimeter;html=1;backgroundOutline=1;" vertex="1" parent="MwV0uVUWhZ64IFKLvypK-16">
          <mxGeometry x="7.768031189083821" y="231.4220618556701" width="23.30409356725146" height="23.81443298969072" as="geometry" />
        </mxCell>
        <mxCell id="fqFtTZ34vG14wbRMrud7-119" style="edgeStyle=orthogonalEdgeStyle;rounded=0;orthogonalLoop=1;jettySize=auto;html=1;entryX=0.5;entryY=0;entryDx=0;entryDy=0;" edge="1" parent="MwV0uVUWhZ64IFKLvypK-16" source="fqFtTZ34vG14wbRMrud7-118" target="MwV0uVUWhZ64IFKLvypK-28">
          <mxGeometry relative="1" as="geometry" />
        </mxCell>
        <mxCell id="fqFtTZ34vG14wbRMrud7-118" value="" style="ellipse;" vertex="1" parent="MwV0uVUWhZ64IFKLvypK-16">
          <mxGeometry x="7.76803118908382" y="27.783505154639172" width="23.30409356725146" height="23.81443298969072" as="geometry" />
        </mxCell>
        <mxCell id="MwV0uVUWhZ64IFKLvypK-42" value="no" style="edgeStyle=orthogonalEdgeStyle;html=1;align=left;verticalAlign=top;endArrow=open;endSize=8;strokeColor=#ff0000;rounded=0;entryX=0.5;entryY=0;entryDx=0;entryDy=0;" edge="1" parent="gu6PSxJLLUpwhg4ktaRB-1" source="MwV0uVUWhZ64IFKLvypK-40" target="fqFtTZ34vG14wbRMrud7-59">
          <mxGeometry x="-1" relative="1" as="geometry">
            <mxPoint x="-1270.7144249512671" y="348.58762886597935" as="targetPoint" />
          </mxGeometry>
        </mxCell>
        <mxCell id="fqFtTZ34vG14wbRMrud7-61" value="no" style="edgeStyle=orthogonalEdgeStyle;html=1;align=left;verticalAlign=top;endArrow=open;endSize=8;strokeColor=#ff0000;rounded=0;entryX=0.5;entryY=0;entryDx=0;entryDy=0;" edge="1" parent="gu6PSxJLLUpwhg4ktaRB-1" source="fqFtTZ34vG14wbRMrud7-59" target="fqFtTZ34vG14wbRMrud7-92">
          <mxGeometry x="-1" relative="1" as="geometry">
            <mxPoint x="-1270.7144249512671" y="475.5979381443299" as="targetPoint" />
          </mxGeometry>
        </mxCell>
        <mxCell id="fqFtTZ34vG14wbRMrud7-94" value="no" style="edgeStyle=orthogonalEdgeStyle;html=1;align=left;verticalAlign=top;endArrow=open;endSize=8;strokeColor=#ff0000;rounded=0;entryX=0.5;entryY=0;entryDx=0;entryDy=0;" edge="1" parent="gu6PSxJLLUpwhg4ktaRB-1" source="fqFtTZ34vG14wbRMrud7-92" target="fqFtTZ34vG14wbRMrud7-99">
          <mxGeometry x="-1" relative="1" as="geometry">
            <mxPoint x="-1270.7144249512671" y="602.6082474226804" as="targetPoint" />
          </mxGeometry>
        </mxCell>
        <mxCell id="fqFtTZ34vG14wbRMrud7-101" value="no" style="edgeStyle=orthogonalEdgeStyle;html=1;align=left;verticalAlign=top;endArrow=open;endSize=8;strokeColor=#ff0000;rounded=0;entryX=0.5;entryY=0;entryDx=0;entryDy=0;" edge="1" parent="gu6PSxJLLUpwhg4ktaRB-1" source="fqFtTZ34vG14wbRMrud7-99" target="gu6PSxJLLUpwhg4ktaRB-49">
          <mxGeometry x="-1" relative="1" as="geometry">
            <mxPoint x="-1270.7144249512671" y="681.9896907216495" as="targetPoint" />
          </mxGeometry>
        </mxCell>
        <mxCell id="fqFtTZ34vG14wbRMrud7-120" value="ISR" style="swimlane;whiteSpace=wrap;html=1;" vertex="1" parent="gu6PSxJLLUpwhg4ktaRB-1">
          <mxGeometry x="-1630" y="990" width="292.35" height="130" as="geometry" />
        </mxCell>
        <mxCell id="gu6PSxJLLUpwhg4ktaRB-82" value="Set Button Press Flag" style="rounded=1;whiteSpace=wrap;html=1;arcSize=40;fontColor=#000000;fillColor=#ffffc0;strokeColor=#ff0000;" vertex="1" parent="fqFtTZ34vG14wbRMrud7-120">
          <mxGeometry x="164.57" y="80" width="117.65" height="31.75" as="geometry" />
        </mxCell>
        <mxCell id="gu6PSxJLLUpwhg4ktaRB-83" value="" style="edgeStyle=orthogonalEdgeStyle;html=1;verticalAlign=bottom;endArrow=open;endSize=8;strokeColor=#ff0000;rounded=0;exitX=0;exitY=0.5;exitDx=0;exitDy=0;entryX=1;entryY=0.5;entryDx=0;entryDy=0;" edge="1" parent="fqFtTZ34vG14wbRMrud7-120" source="gu6PSxJLLUpwhg4ktaRB-82" target="fqFtTZ34vG14wbRMrud7-121">
          <mxGeometry relative="1" as="geometry">
            <mxPoint x="77.68031189083821" y="238.1443298969072" as="targetPoint" />
          </mxGeometry>
        </mxCell>
        <mxCell id="gu6PSxJLLUpwhg4ktaRB-81" value="" style="edgeStyle=orthogonalEdgeStyle;html=1;verticalAlign=bottom;endArrow=open;endSize=8;strokeColor=#ff0000;rounded=0;" edge="1" parent="fqFtTZ34vG14wbRMrud7-120" source="gu6PSxJLLUpwhg4ktaRB-80" target="gu6PSxJLLUpwhg4ktaRB-82">
          <mxGeometry relative="1" as="geometry">
            <mxPoint x="77.68031189083821" y="142.88659793814432" as="targetPoint" />
          </mxGeometry>
        </mxCell>
        <mxCell id="gu6PSxJLLUpwhg4ktaRB-80" value="Button Press ISR Triggered" style="rounded=1;whiteSpace=wrap;html=1;arcSize=40;fontColor=#000000;fillColor=#ffffc0;strokeColor=#ff0000;" vertex="1" parent="fqFtTZ34vG14wbRMrud7-120">
          <mxGeometry x="176.78606237816763" y="30.002371134020628" width="93.21637426900584" height="31.752577319587626" as="geometry" />
        </mxCell>
        <mxCell id="fqFtTZ34vG14wbRMrud7-121" value="" style="shape=sumEllipse;perimeter=ellipsePerimeter;html=1;backgroundOutline=1;" vertex="1" parent="fqFtTZ34vG14wbRMrud7-120">
          <mxGeometry x="12.352202729044834" y="83.9663917525773" width="23.30409356725146" height="23.81443298969072" as="geometry" />
        </mxCell>
        <mxCell id="fqFtTZ34vG14wbRMrud7-123" style="edgeStyle=orthogonalEdgeStyle;rounded=0;orthogonalLoop=1;jettySize=auto;html=1;entryX=0;entryY=0.5;entryDx=0;entryDy=0;" edge="1" parent="fqFtTZ34vG14wbRMrud7-120" source="fqFtTZ34vG14wbRMrud7-122" target="gu6PSxJLLUpwhg4ktaRB-80">
          <mxGeometry relative="1" as="geometry" />
        </mxCell>
        <mxCell id="fqFtTZ34vG14wbRMrud7-122" value="" style="ellipse;" vertex="1" parent="fqFtTZ34vG14wbRMrud7-120">
          <mxGeometry x="12.352202729044834" y="33.97257731958763" width="23.30409356725146" height="23.81443298969072" as="geometry" />
        </mxCell>
        <mxCell id="fqFtTZ34vG14wbRMrud7-34" value="SENDING BUTTON PRESS" style="swimlane;whiteSpace=wrap;html=1;" vertex="1" parent="gu6PSxJLLUpwhg4ktaRB-1">
          <mxGeometry x="-1172.35" y="531" width="252.35" height="296.73" as="geometry" />
        </mxCell>
        <mxCell id="fqFtTZ34vG14wbRMrud7-48" value="Send Button Press" style="rounded=1;whiteSpace=wrap;html=1;arcSize=40;fontColor=#000000;fillColor=#ffffc0;strokeColor=#ff0000;" vertex="1" parent="fqFtTZ34vG14wbRMrud7-34">
          <mxGeometry x="152.35456140350877" y="66.73443298969072" width="93.21637426900584" height="31.752577319587626" as="geometry" />
        </mxCell>
        <mxCell id="fqFtTZ34vG14wbRMrud7-49" value="" style="edgeStyle=orthogonalEdgeStyle;html=1;verticalAlign=bottom;endArrow=open;endSize=8;strokeColor=#ff0000;rounded=0;entryX=0.5;entryY=0;entryDx=0;entryDy=0;exitX=0.5;exitY=1;exitDx=0;exitDy=0;" edge="1" parent="fqFtTZ34vG14wbRMrud7-34" source="fqFtTZ34vG14wbRMrud7-48" target="fqFtTZ34vG14wbRMrud7-57">
          <mxGeometry relative="1" as="geometry">
            <mxPoint x="46.60818713450292" y="158.76288659793815" as="targetPoint" />
          </mxGeometry>
        </mxCell>
        <mxCell id="fqFtTZ34vG14wbRMrud7-134" style="edgeStyle=orthogonalEdgeStyle;rounded=0;orthogonalLoop=1;jettySize=auto;html=1;entryX=1;entryY=0.5;entryDx=0;entryDy=0;exitX=0.464;exitY=1.014;exitDx=0;exitDy=0;exitPerimeter=0;" edge="1" parent="fqFtTZ34vG14wbRMrud7-34" source="fqFtTZ34vG14wbRMrud7-50" target="fqFtTZ34vG14wbRMrud7-113">
          <mxGeometry relative="1" as="geometry" />
        </mxCell>
        <mxCell id="fqFtTZ34vG14wbRMrud7-50" value="Attach Button Interrupt" style="rounded=1;whiteSpace=wrap;html=1;arcSize=40;fontColor=#000000;fillColor=#ffffc0;strokeColor=#ff0000;" vertex="1" parent="fqFtTZ34vG14wbRMrud7-34">
          <mxGeometry x="152.35456140350877" y="186.7321649484536" width="93.21637426900584" height="31.752577319587626" as="geometry" />
        </mxCell>
        <mxCell id="fqFtTZ34vG14wbRMrud7-51" value="Button Interrupt Attached?" style="rhombus;whiteSpace=wrap;html=1;fontColor=#000000;fillColor=#ffffc0;strokeColor=#ff0000;" vertex="1" parent="fqFtTZ34vG14wbRMrud7-34">
          <mxGeometry x="17.35" y="177.60999999999999" width="90" height="50" as="geometry" />
        </mxCell>
        <mxCell id="fqFtTZ34vG14wbRMrud7-52" value="no" style="edgeStyle=orthogonalEdgeStyle;html=1;align=left;verticalAlign=bottom;endArrow=open;endSize=8;strokeColor=#ff0000;rounded=0;entryX=0;entryY=0.5;entryDx=0;entryDy=0;" edge="1" parent="fqFtTZ34vG14wbRMrud7-34" source="fqFtTZ34vG14wbRMrud7-51" target="fqFtTZ34vG14wbRMrud7-50">
          <mxGeometry x="-1" relative="1" as="geometry">
            <mxPoint x="318.48927875243663" y="150.82474226804123" as="targetPoint" />
          </mxGeometry>
        </mxCell>
        <mxCell id="fqFtTZ34vG14wbRMrud7-53" value="Button Press Flag?" style="rhombus;whiteSpace=wrap;html=1;fontColor=#000000;fillColor=#ffffc0;strokeColor=#ff0000;" vertex="1" parent="fqFtTZ34vG14wbRMrud7-34">
          <mxGeometry x="22.348187134502922" y="57.61443298969072" width="80" height="50" as="geometry" />
        </mxCell>
        <mxCell id="fqFtTZ34vG14wbRMrud7-54" value="yes" style="edgeStyle=orthogonalEdgeStyle;html=1;align=left;verticalAlign=bottom;endArrow=open;endSize=8;strokeColor=#ff0000;rounded=0;entryX=0;entryY=0.5;entryDx=0;entryDy=0;" edge="1" parent="fqFtTZ34vG14wbRMrud7-34" source="fqFtTZ34vG14wbRMrud7-53" target="fqFtTZ34vG14wbRMrud7-48">
          <mxGeometry x="-1" relative="1" as="geometry">
            <mxPoint x="186.43274853801168" y="55.567010309278345" as="targetPoint" />
          </mxGeometry>
        </mxCell>
        <mxCell id="fqFtTZ34vG14wbRMrud7-55" value="no" style="edgeStyle=orthogonalEdgeStyle;html=1;align=left;verticalAlign=top;endArrow=open;endSize=8;strokeColor=#ff0000;rounded=0;entryX=0.5;entryY=0;entryDx=0;entryDy=0;" edge="1" parent="fqFtTZ34vG14wbRMrud7-34" source="fqFtTZ34vG14wbRMrud7-53" target="fqFtTZ34vG14wbRMrud7-51">
          <mxGeometry x="-1" relative="1" as="geometry">
            <mxPoint x="77.68031189083821" y="119.0721649484536" as="targetPoint" />
          </mxGeometry>
        </mxCell>
        <mxCell id="fqFtTZ34vG14wbRMrud7-57" value="Pulse LED" style="rounded=1;whiteSpace=wrap;html=1;arcSize=40;fontColor=#000000;fillColor=#ffffc0;strokeColor=#ff0000;" vertex="1" parent="fqFtTZ34vG14wbRMrud7-34">
          <mxGeometry x="152.35456140350877" y="117.48804123711339" width="93.21637426900584" height="31.752577319587626" as="geometry" />
        </mxCell>
        <mxCell id="fqFtTZ34vG14wbRMrud7-58" value="" style="edgeStyle=orthogonalEdgeStyle;html=1;verticalAlign=bottom;endArrow=open;endSize=8;strokeColor=#ff0000;rounded=0;exitX=0.5;exitY=1;exitDx=0;exitDy=0;entryX=0.5;entryY=0;entryDx=0;entryDy=0;" edge="1" parent="fqFtTZ34vG14wbRMrud7-34" source="fqFtTZ34vG14wbRMrud7-57" target="fqFtTZ34vG14wbRMrud7-51">
          <mxGeometry relative="1" as="geometry">
            <mxPoint x="279.64912280701753" y="182.57731958762886" as="targetPoint" />
          </mxGeometry>
        </mxCell>
        <mxCell id="fqFtTZ34vG14wbRMrud7-112" style="edgeStyle=orthogonalEdgeStyle;rounded=0;orthogonalLoop=1;jettySize=auto;html=1;entryX=0.5;entryY=0;entryDx=0;entryDy=0;" edge="1" parent="fqFtTZ34vG14wbRMrud7-34" source="fqFtTZ34vG14wbRMrud7-110" target="fqFtTZ34vG14wbRMrud7-53">
          <mxGeometry relative="1" as="geometry">
            <Array as="points">
              <mxPoint x="51" y="40" />
              <mxPoint x="76" y="40" />
            </Array>
          </mxGeometry>
        </mxCell>
        <mxCell id="fqFtTZ34vG14wbRMrud7-110" value="" style="ellipse;" vertex="1" parent="fqFtTZ34vG14wbRMrud7-34">
          <mxGeometry x="7.76803118908382" y="27.783505154639172" width="23.30409356725146" height="23.81443298969072" as="geometry" />
        </mxCell>
        <mxCell id="fqFtTZ34vG14wbRMrud7-113" value="" style="shape=sumEllipse;perimeter=ellipsePerimeter;html=1;backgroundOutline=1;" vertex="1" parent="fqFtTZ34vG14wbRMrud7-34">
          <mxGeometry x="7.768031189083819" y="256.73288659793815" width="23.30409356725146" height="23.81443298969072" as="geometry" />
        </mxCell>
        <mxCell id="fqFtTZ34vG14wbRMrud7-114" style="edgeStyle=orthogonalEdgeStyle;rounded=0;orthogonalLoop=1;jettySize=auto;html=1;exitX=0.5;exitY=1;exitDx=0;exitDy=0;entryX=1;entryY=0.5;entryDx=0;entryDy=0;" edge="1" parent="fqFtTZ34vG14wbRMrud7-34" source="fqFtTZ34vG14wbRMrud7-51" target="fqFtTZ34vG14wbRMrud7-113">
          <mxGeometry relative="1" as="geometry">
            <mxPoint x="52.34999999999991" y="238.73000000000002" as="targetPoint" />
          </mxGeometry>
        </mxCell>
        <mxCell id="fqFtTZ34vG14wbRMrud7-115" value="yes" style="edgeLabel;html=1;align=center;verticalAlign=middle;resizable=0;points=[];" vertex="1" connectable="0" parent="fqFtTZ34vG14wbRMrud7-114">
          <mxGeometry x="-0.015" y="2" relative="1" as="geometry">
            <mxPoint as="offset" />
          </mxGeometry>
        </mxCell>
        <mxCell id="fqFtTZ34vG14wbRMrud7-59" value="&lt;b&gt;Operating State:&lt;/b&gt;&amp;nbsp;&lt;div&gt;Button Action&lt;/div&gt;" style="rhombus;whiteSpace=wrap;html=1;fontColor=#000000;fillColor=#ffffc0;strokeColor=#ff0000;" vertex="1" parent="gu6PSxJLLUpwhg4ktaRB-1">
          <mxGeometry x="-1309.5545808966863" y="444.4364948453608" width="100.98440545808967" height="55.567010309278345" as="geometry" />
        </mxCell>
        <mxCell id="fqFtTZ34vG14wbRMrud7-60" value="yes" style="edgeStyle=orthogonalEdgeStyle;html=1;align=left;verticalAlign=bottom;endArrow=open;endSize=8;strokeColor=#ff0000;rounded=0;entryX=0.25;entryY=0;entryDx=0;entryDy=0;" edge="1" parent="gu6PSxJLLUpwhg4ktaRB-1" source="fqFtTZ34vG14wbRMrud7-59" target="fqFtTZ34vG14wbRMrud7-34">
          <mxGeometry relative="1" as="geometry">
            <mxPoint x="-1099.0409356725145" y="496.09278350515456" as="targetPoint" />
            <Array as="points">
              <mxPoint x="-1200" y="472" />
              <mxPoint x="-1200" y="510" />
              <mxPoint x="-1109" y="510" />
            </Array>
          </mxGeometry>
        </mxCell>
        <mxCell id="MwV0uVUWhZ64IFKLvypK-40" value="&lt;b&gt;Operating State: &lt;/b&gt;Connecting" style="rhombus;whiteSpace=wrap;html=1;fontColor=#000000;fillColor=#ffffc0;strokeColor=#ff0000;" vertex="1" parent="gu6PSxJLLUpwhg4ktaRB-1">
          <mxGeometry x="-1309.6745808966862" y="199.0001030927835" width="100.98440545808967" height="55.567010309278345" as="geometry" />
        </mxCell>
        <mxCell id="MwV0uVUWhZ64IFKLvypK-44" value="CONNECTING" style="swimlane;whiteSpace=wrap;html=1;" vertex="1" parent="gu6PSxJLLUpwhg4ktaRB-1">
          <mxGeometry x="-1172.35" y="154.97" width="292.35" height="328.25" as="geometry" />
        </mxCell>
        <mxCell id="fqFtTZ34vG14wbRMrud7-17" value="Wifi Connected?" style="rhombus;whiteSpace=wrap;html=1;fontColor=#000000;fillColor=#ffffc0;strokeColor=#ff0000;" vertex="1" parent="MwV0uVUWhZ64IFKLvypK-44">
          <mxGeometry x="6.214424951267056" y="108.25144329896908" width="80" height="50" as="geometry" />
        </mxCell>
        <mxCell id="fqFtTZ34vG14wbRMrud7-18" value="no" style="edgeStyle=orthogonalEdgeStyle;html=1;align=left;verticalAlign=bottom;endArrow=open;endSize=8;strokeColor=#ff0000;rounded=0;entryX=0;entryY=0.5;entryDx=0;entryDy=0;exitX=1;exitY=0.5;exitDx=0;exitDy=0;" edge="1" parent="MwV0uVUWhZ64IFKLvypK-44" source="fqFtTZ34vG14wbRMrud7-17" target="fqFtTZ34vG14wbRMrud7-22">
          <mxGeometry x="-1" relative="1" as="geometry">
            <mxPoint x="148.36939571150097" y="79.38144329896907" as="targetPoint" />
            <mxPoint x="70.68908382066277" y="79.38144329896907" as="sourcePoint" />
          </mxGeometry>
        </mxCell>
        <mxCell id="fqFtTZ34vG14wbRMrud7-19" value="yes" style="edgeStyle=orthogonalEdgeStyle;html=1;align=left;verticalAlign=top;endArrow=open;endSize=8;strokeColor=#ff0000;rounded=0;exitX=0.5;exitY=1;exitDx=0;exitDy=0;entryX=0.5;entryY=0;entryDx=0;entryDy=0;" edge="1" parent="MwV0uVUWhZ64IFKLvypK-44" source="fqFtTZ34vG14wbRMrud7-17" target="fqFtTZ34vG14wbRMrud7-26">
          <mxGeometry x="-1" relative="1" as="geometry">
            <mxPoint x="39.61695906432748" y="142.88659793814432" as="targetPoint" />
            <mxPoint x="47.3849902534113" y="119.0721649484536" as="sourcePoint" />
          </mxGeometry>
        </mxCell>
        <mxCell id="fqFtTZ34vG14wbRMrud7-20" value="Connect Wifi" style="rounded=1;whiteSpace=wrap;html=1;arcSize=40;fontColor=#000000;fillColor=#ffffc0;strokeColor=#ff0000;" vertex="1" parent="MwV0uVUWhZ64IFKLvypK-44">
          <mxGeometry x="86.21169590643275" y="47.62886597938144" width="93.21637426900584" height="31.752577319587626" as="geometry" />
        </mxCell>
        <mxCell id="fqFtTZ34vG14wbRMrud7-21" value="" style="edgeStyle=orthogonalEdgeStyle;html=1;verticalAlign=bottom;endArrow=open;endSize=8;strokeColor=#ff0000;rounded=0;entryX=0.5;entryY=0;entryDx=0;entryDy=0;exitX=0.5;exitY=1;exitDx=0;exitDy=0;" edge="1" parent="MwV0uVUWhZ64IFKLvypK-44" source="fqFtTZ34vG14wbRMrud7-20" target="fqFtTZ34vG14wbRMrud7-17">
          <mxGeometry relative="1" as="geometry">
            <mxPoint x="39.61695906432748" y="47.62886597938144" as="targetPoint" />
          </mxGeometry>
        </mxCell>
        <mxCell id="fqFtTZ34vG14wbRMrud7-22" value="Timeout?" style="rhombus;whiteSpace=wrap;html=1;fontColor=#000000;fillColor=#ffffc0;strokeColor=#ff0000;" vertex="1" parent="MwV0uVUWhZ64IFKLvypK-44">
          <mxGeometry x="167.60200779727094" y="108.25144329896908" width="80" height="50" as="geometry" />
        </mxCell>
        <mxCell id="fqFtTZ34vG14wbRMrud7-23" value="no" style="edgeStyle=orthogonalEdgeStyle;html=1;align=left;verticalAlign=bottom;endArrow=open;endSize=8;strokeColor=#ff0000;rounded=0;entryX=1;entryY=0.5;entryDx=0;entryDy=0;exitX=0.5;exitY=0;exitDx=0;exitDy=0;" edge="1" parent="MwV0uVUWhZ64IFKLvypK-44" source="fqFtTZ34vG14wbRMrud7-22" target="fqFtTZ34vG14wbRMrud7-20">
          <mxGeometry x="-0.3997" y="-5" relative="1" as="geometry">
            <mxPoint x="303.7300194931774" y="127.0103092783505" as="targetPoint" />
            <mxPoint x="226.04970760233917" y="127.0103092783505" as="sourcePoint" />
            <Array as="points">
              <mxPoint x="208" y="64" />
            </Array>
            <mxPoint as="offset" />
          </mxGeometry>
        </mxCell>
        <mxCell id="fqFtTZ34vG14wbRMrud7-24" value="yes" style="edgeStyle=orthogonalEdgeStyle;html=1;align=left;verticalAlign=top;endArrow=open;endSize=8;strokeColor=#ff0000;rounded=0;exitX=1;exitY=0.5;exitDx=0;exitDy=0;entryX=0.5;entryY=0;entryDx=0;entryDy=0;" edge="1" parent="MwV0uVUWhZ64IFKLvypK-44" source="fqFtTZ34vG14wbRMrud7-22" target="fqFtTZ34vG14wbRMrud7-102">
          <mxGeometry x="-0.2812" relative="1" as="geometry">
            <mxPoint x="268.7738791423002" y="190.51546391752575" as="targetPoint" />
            <mxPoint as="offset" />
          </mxGeometry>
        </mxCell>
        <mxCell id="fqFtTZ34vG14wbRMrud7-103" style="edgeStyle=orthogonalEdgeStyle;rounded=0;orthogonalLoop=1;jettySize=auto;html=1;entryX=0;entryY=0.5;entryDx=0;entryDy=0;exitX=0.5;exitY=1;exitDx=0;exitDy=0;" edge="1" parent="MwV0uVUWhZ64IFKLvypK-44" source="fqFtTZ34vG14wbRMrud7-26" target="fqFtTZ34vG14wbRMrud7-102">
          <mxGeometry relative="1" as="geometry" />
        </mxCell>
        <mxCell id="fqFtTZ34vG14wbRMrud7-26" value="MQTT Connected?" style="rhombus;whiteSpace=wrap;html=1;fontColor=#000000;fillColor=#ffffc0;strokeColor=#ff0000;" vertex="1" parent="MwV0uVUWhZ64IFKLvypK-44">
          <mxGeometry x="6.2144249512670555" y="238.2485567010309" width="80" height="50" as="geometry" />
        </mxCell>
        <mxCell id="fqFtTZ34vG14wbRMrud7-27" value="no" style="edgeStyle=orthogonalEdgeStyle;html=1;align=left;verticalAlign=bottom;endArrow=open;endSize=8;strokeColor=#ff0000;rounded=0;entryX=0;entryY=0.5;entryDx=0;entryDy=0;exitX=1;exitY=0.5;exitDx=0;exitDy=0;" edge="1" parent="MwV0uVUWhZ64IFKLvypK-44" source="fqFtTZ34vG14wbRMrud7-26" target="fqFtTZ34vG14wbRMrud7-32">
          <mxGeometry x="-0.5572" y="-2" relative="1" as="geometry">
            <mxPoint x="148.36939571150097" y="174.63917525773195" as="targetPoint" />
            <mxPoint x="78.45711500974659" y="174.63917525773195" as="sourcePoint" />
            <mxPoint as="offset" />
          </mxGeometry>
        </mxCell>
        <mxCell id="fqFtTZ34vG14wbRMrud7-28" value="Connect MQTT" style="rounded=1;whiteSpace=wrap;html=1;arcSize=40;fontColor=#000000;fillColor=#ffffc0;strokeColor=#ff0000;" vertex="1" parent="MwV0uVUWhZ64IFKLvypK-44">
          <mxGeometry x="63.00105263157894" y="175.2459793814433" width="93.21637426900584" height="31.752577319587626" as="geometry" />
        </mxCell>
        <mxCell id="fqFtTZ34vG14wbRMrud7-29" value="" style="edgeStyle=orthogonalEdgeStyle;html=1;verticalAlign=bottom;endArrow=open;endSize=8;strokeColor=#ff0000;rounded=0;entryX=0.5;entryY=0;entryDx=0;entryDy=0;exitX=0.5;exitY=1;exitDx=0;exitDy=0;" edge="1" parent="MwV0uVUWhZ64IFKLvypK-44" source="fqFtTZ34vG14wbRMrud7-28" target="fqFtTZ34vG14wbRMrud7-26">
          <mxGeometry relative="1" as="geometry">
            <mxPoint x="55.153021442495124" y="158.76288659793815" as="targetPoint" />
          </mxGeometry>
        </mxCell>
        <mxCell id="fqFtTZ34vG14wbRMrud7-30" style="edgeStyle=orthogonalEdgeStyle;rounded=0;orthogonalLoop=1;jettySize=auto;html=1;exitX=1;exitY=0.5;exitDx=0;exitDy=0;entryX=0.5;entryY=0;entryDx=0;entryDy=0;strokeColor=light-dark(#ff0000, #ededed);" edge="1" parent="MwV0uVUWhZ64IFKLvypK-44" source="fqFtTZ34vG14wbRMrud7-32" target="fqFtTZ34vG14wbRMrud7-102">
          <mxGeometry relative="1" as="geometry">
            <mxPoint x="268.7738791423002" y="190.51546391752575" as="targetPoint" />
          </mxGeometry>
        </mxCell>
        <mxCell id="fqFtTZ34vG14wbRMrud7-31" value="yes" style="edgeLabel;html=1;align=center;verticalAlign=middle;resizable=0;points=[];" vertex="1" connectable="0" parent="fqFtTZ34vG14wbRMrud7-30">
          <mxGeometry x="-0.0154" relative="1" as="geometry">
            <mxPoint x="-20" as="offset" />
          </mxGeometry>
        </mxCell>
        <mxCell id="fqFtTZ34vG14wbRMrud7-32" value="Timeout?" style="rhombus;whiteSpace=wrap;html=1;fontColor=#000000;fillColor=#ffffc0;strokeColor=#ff0000;" vertex="1" parent="MwV0uVUWhZ64IFKLvypK-44">
          <mxGeometry x="142.99578947368425" y="238.2485567010309" width="80" height="50" as="geometry" />
        </mxCell>
        <mxCell id="fqFtTZ34vG14wbRMrud7-33" value="no" style="edgeStyle=orthogonalEdgeStyle;html=1;align=left;verticalAlign=bottom;endArrow=open;endSize=8;strokeColor=#ff0000;rounded=0;entryX=1;entryY=0.5;entryDx=0;entryDy=0;exitX=0.5;exitY=0;exitDx=0;exitDy=0;" edge="1" parent="MwV0uVUWhZ64IFKLvypK-44" source="fqFtTZ34vG14wbRMrud7-32" target="fqFtTZ34vG14wbRMrud7-28">
          <mxGeometry relative="1" as="geometry">
            <mxPoint x="303.7300194931774" y="222.26804123711338" as="targetPoint" />
            <mxPoint x="226.04970760233917" y="222.26804123711338" as="sourcePoint" />
          </mxGeometry>
        </mxCell>
        <mxCell id="fqFtTZ34vG14wbRMrud7-102" value="" style="shape=sumEllipse;perimeter=ellipsePerimeter;html=1;backgroundOutline=1;" vertex="1" parent="MwV0uVUWhZ64IFKLvypK-44">
          <mxGeometry x="247.6062573099415" y="300.00113402061857" width="23.30409356725146" height="23.81443298969072" as="geometry" />
        </mxCell>
        <mxCell id="fqFtTZ34vG14wbRMrud7-105" style="edgeStyle=orthogonalEdgeStyle;rounded=0;orthogonalLoop=1;jettySize=auto;html=1;entryX=0.5;entryY=0;entryDx=0;entryDy=0;" edge="1" parent="MwV0uVUWhZ64IFKLvypK-44" source="fqFtTZ34vG14wbRMrud7-104" target="fqFtTZ34vG14wbRMrud7-17">
          <mxGeometry relative="1" as="geometry">
            <mxPoint x="37.28654970760234" y="63.50515463917525" as="targetPoint" />
          </mxGeometry>
        </mxCell>
        <mxCell id="fqFtTZ34vG14wbRMrud7-104" value="" style="ellipse;" vertex="1" parent="MwV0uVUWhZ64IFKLvypK-44">
          <mxGeometry x="247.60625730994153" y="28.81443298969072" width="23.30409356725146" height="23.81443298969072" as="geometry" />
        </mxCell>
        <mxCell id="MwV0uVUWhZ64IFKLvypK-41" value="yes" style="edgeStyle=orthogonalEdgeStyle;html=1;align=left;verticalAlign=bottom;endArrow=open;endSize=8;strokeColor=#ff0000;rounded=0;exitX=1;exitY=0.5;exitDx=0;exitDy=0;entryX=0;entryY=0.25;entryDx=0;entryDy=0;" edge="1" parent="gu6PSxJLLUpwhg4ktaRB-1" source="MwV0uVUWhZ64IFKLvypK-40" target="MwV0uVUWhZ64IFKLvypK-44">
          <mxGeometry relative="1" as="geometry">
            <mxPoint x="-1615.8118908382066" y="147.31958762886597" as="targetPoint" />
          </mxGeometry>
        </mxCell>
        <mxCell id="fqFtTZ34vG14wbRMrud7-63" value="RECEIVING UPDATES" style="swimlane;whiteSpace=wrap;html=1;" vertex="1" parent="gu6PSxJLLUpwhg4ktaRB-1">
          <mxGeometry x="-1600" y="500" width="262.35" height="450" as="geometry" />
        </mxCell>
        <mxCell id="fqFtTZ34vG14wbRMrud7-64" value="Subscribe to MQTT" style="rounded=1;whiteSpace=wrap;html=1;arcSize=40;fontColor=#000000;fillColor=#ffffc0;strokeColor=#ff0000;" vertex="1" parent="fqFtTZ34vG14wbRMrud7-63">
          <mxGeometry x="128" y="31.75" width="77.39" height="31.75" as="geometry" />
        </mxCell>
        <mxCell id="fqFtTZ34vG14wbRMrud7-65" value="" style="edgeStyle=orthogonalEdgeStyle;html=1;verticalAlign=bottom;endArrow=open;endSize=8;strokeColor=#ff0000;rounded=0;entryX=1;entryY=0.5;entryDx=0;entryDy=0;" edge="1" parent="fqFtTZ34vG14wbRMrud7-63" source="fqFtTZ34vG14wbRMrud7-64" target="fqFtTZ34vG14wbRMrud7-66">
          <mxGeometry relative="1" as="geometry">
            <mxPoint x="31.46588693957115" y="111.13402061855669" as="targetPoint" />
          </mxGeometry>
        </mxCell>
        <mxCell id="fqFtTZ34vG14wbRMrud7-66" value="Check Commands" style="rounded=1;whiteSpace=wrap;html=1;arcSize=40;fontColor=#000000;fillColor=#ffffc0;strokeColor=#ff0000;" vertex="1" parent="fqFtTZ34vG14wbRMrud7-63">
          <mxGeometry x="20.32" y="31.75" width="77.07" height="31.75" as="geometry" />
        </mxCell>
        <mxCell id="fqFtTZ34vG14wbRMrud7-67" value="" style="edgeStyle=orthogonalEdgeStyle;html=1;verticalAlign=bottom;endArrow=open;endSize=8;strokeColor=#ff0000;rounded=0;entryX=0.5;entryY=0;entryDx=0;entryDy=0;" edge="1" parent="fqFtTZ34vG14wbRMrud7-63" source="fqFtTZ34vG14wbRMrud7-66" target="fqFtTZ34vG14wbRMrud7-68">
          <mxGeometry relative="1" as="geometry">
            <mxPoint x="31.46588693957115" y="198.45360824742266" as="targetPoint" />
          </mxGeometry>
        </mxCell>
        <mxCell id="fqFtTZ34vG14wbRMrud7-68" value="Commands Available?" style="rhombus;whiteSpace=wrap;html=1;fontColor=#000000;fillColor=#ffffc0;strokeColor=#ff0000;" vertex="1" parent="fqFtTZ34vG14wbRMrud7-63">
          <mxGeometry x="18.853762183235865" y="81.38144329896907" width="80" height="50" as="geometry" />
        </mxCell>
        <mxCell id="fqFtTZ34vG14wbRMrud7-69" value="no" style="edgeStyle=orthogonalEdgeStyle;html=1;align=left;verticalAlign=bottom;endArrow=open;endSize=8;strokeColor=#ff0000;rounded=0;exitX=0;exitY=0.5;exitDx=0;exitDy=0;entryX=0.5;entryY=0;entryDx=0;entryDy=0;" edge="1" parent="fqFtTZ34vG14wbRMrud7-63" source="fqFtTZ34vG14wbRMrud7-68" target="fqFtTZ34vG14wbRMrud7-81">
          <mxGeometry relative="1" as="geometry">
            <mxPoint x="140.21832358674465" y="95.25773195876288" as="targetPoint" />
            <Array as="points">
              <mxPoint x="9" y="106" />
              <mxPoint x="9" y="307" />
              <mxPoint x="58" y="307" />
            </Array>
          </mxGeometry>
        </mxCell>
        <mxCell id="fqFtTZ34vG14wbRMrud7-70" value="yes" style="edgeStyle=orthogonalEdgeStyle;html=1;align=left;verticalAlign=top;endArrow=open;endSize=8;strokeColor=#ff0000;rounded=0;entryX=0.5;entryY=0;entryDx=0;entryDy=0;" edge="1" parent="fqFtTZ34vG14wbRMrud7-63" source="fqFtTZ34vG14wbRMrud7-68" target="fqFtTZ34vG14wbRMrud7-73">
          <mxGeometry x="-1" relative="1" as="geometry">
            <mxPoint x="31.46588693957115" y="158.76288659793815" as="targetPoint" />
          </mxGeometry>
        </mxCell>
        <mxCell id="fqFtTZ34vG14wbRMrud7-71" value="Update Flash (Color)" style="rounded=1;whiteSpace=wrap;html=1;arcSize=40;fontColor=#000000;fillColor=#ffffc0;strokeColor=#ff0000;" vertex="1" parent="fqFtTZ34vG14wbRMrud7-63">
          <mxGeometry x="129.0001364522417" y="148.57773195876285" width="93.21637426900584" height="31.752577319587626" as="geometry" />
        </mxCell>
        <mxCell id="fqFtTZ34vG14wbRMrud7-72" value="" style="edgeStyle=orthogonalEdgeStyle;html=1;verticalAlign=bottom;endArrow=open;endSize=8;strokeColor=#ff0000;rounded=0;entryX=0.5;entryY=0;entryDx=0;entryDy=0;exitX=0.5;exitY=1;exitDx=0;exitDy=0;" edge="1" parent="fqFtTZ34vG14wbRMrud7-63" source="fqFtTZ34vG14wbRMrud7-71" target="fqFtTZ34vG14wbRMrud7-84">
          <mxGeometry relative="1" as="geometry">
            <mxPoint x="295.57894736842104" y="204.8041237113402" as="targetPoint" />
          </mxGeometry>
        </mxCell>
        <mxCell id="fqFtTZ34vG14wbRMrud7-73" value="Color Update Available" style="rhombus;whiteSpace=wrap;html=1;fontColor=#000000;fillColor=#ffffc0;strokeColor=#ff0000;" vertex="1" parent="fqFtTZ34vG14wbRMrud7-63">
          <mxGeometry x="18.393762183235864" y="150.00268041237112" width="80" height="50" as="geometry" />
        </mxCell>
        <mxCell id="fqFtTZ34vG14wbRMrud7-74" value="no" style="edgeStyle=orthogonalEdgeStyle;html=1;align=left;verticalAlign=bottom;endArrow=open;endSize=8;strokeColor=#ff0000;rounded=0;exitX=0.5;exitY=1;exitDx=0;exitDy=0;entryX=0.5;entryY=0;entryDx=0;entryDy=0;" edge="1" parent="fqFtTZ34vG14wbRMrud7-63" source="fqFtTZ34vG14wbRMrud7-73" target="fqFtTZ34vG14wbRMrud7-76">
          <mxGeometry x="-0.4634" relative="1" as="geometry">
            <mxPoint x="31.46588693957115" y="222.26804123711338" as="targetPoint" />
            <mxPoint as="offset" />
          </mxGeometry>
        </mxCell>
        <mxCell id="fqFtTZ34vG14wbRMrud7-75" value="yes" style="edgeStyle=orthogonalEdgeStyle;html=1;align=left;verticalAlign=top;endArrow=open;endSize=8;strokeColor=#ff0000;rounded=0;entryX=0;entryY=0.5;entryDx=0;entryDy=0;" edge="1" parent="fqFtTZ34vG14wbRMrud7-63" source="fqFtTZ34vG14wbRMrud7-73" target="fqFtTZ34vG14wbRMrud7-71">
          <mxGeometry x="-1" relative="1" as="geometry">
            <mxPoint x="31.46588693957115" y="220.680412371134" as="targetPoint" />
            <mxPoint as="offset" />
          </mxGeometry>
        </mxCell>
        <mxCell id="fqFtTZ34vG14wbRMrud7-76" value="Brightness Update Available" style="rhombus;whiteSpace=wrap;html=1;fontColor=#000000;fillColor=#ffffc0;strokeColor=#ff0000;" vertex="1" parent="fqFtTZ34vG14wbRMrud7-63">
          <mxGeometry x="18.393762183235864" y="240.00175257731956" width="80" height="50" as="geometry" />
        </mxCell>
        <mxCell id="fqFtTZ34vG14wbRMrud7-77" value="yes" style="edgeStyle=orthogonalEdgeStyle;html=1;align=left;verticalAlign=bottom;endArrow=open;endSize=8;strokeColor=#ff0000;rounded=0;entryX=0;entryY=0.5;entryDx=0;entryDy=0;" edge="1" parent="fqFtTZ34vG14wbRMrud7-63" source="fqFtTZ34vG14wbRMrud7-76" target="fqFtTZ34vG14wbRMrud7-79">
          <mxGeometry x="-1" relative="1" as="geometry">
            <mxPoint x="140.21832358674465" y="254.020618556701" as="targetPoint" />
          </mxGeometry>
        </mxCell>
        <mxCell id="fqFtTZ34vG14wbRMrud7-78" value="no" style="edgeStyle=orthogonalEdgeStyle;html=1;align=left;verticalAlign=top;endArrow=open;endSize=8;strokeColor=#ff0000;rounded=0;entryX=0.5;entryY=0;entryDx=0;entryDy=0;" edge="1" parent="fqFtTZ34vG14wbRMrud7-63" source="fqFtTZ34vG14wbRMrud7-76" target="fqFtTZ34vG14wbRMrud7-81">
          <mxGeometry x="-1" relative="1" as="geometry">
            <mxPoint x="31.46588693957115" y="365.1546391752577" as="targetPoint" />
          </mxGeometry>
        </mxCell>
        <mxCell id="fqFtTZ34vG14wbRMrud7-79" value="Update Flash (Color)" style="rounded=1;whiteSpace=wrap;html=1;arcSize=40;fontColor=#000000;fillColor=#ffffc0;strokeColor=#ff0000;" vertex="1" parent="fqFtTZ34vG14wbRMrud7-63">
          <mxGeometry x="129.0001364522417" y="239.12175257731957" width="93.21637426900584" height="31.752577319587626" as="geometry" />
        </mxCell>
        <mxCell id="fqFtTZ34vG14wbRMrud7-80" value="" style="edgeStyle=orthogonalEdgeStyle;html=1;verticalAlign=bottom;endArrow=open;endSize=8;strokeColor=#ff0000;rounded=0;entryX=0.5;entryY=0;entryDx=0;entryDy=0;exitX=0.5;exitY=1;exitDx=0;exitDy=0;" edge="1" parent="fqFtTZ34vG14wbRMrud7-63" source="fqFtTZ34vG14wbRMrud7-79" target="fqFtTZ34vG14wbRMrud7-86">
          <mxGeometry relative="1" as="geometry">
            <mxPoint x="47.00194931773879" y="341.340206185567" as="targetPoint" />
            <mxPoint x="179.05847953216374" y="277.83505154639175" as="sourcePoint" />
          </mxGeometry>
        </mxCell>
        <mxCell id="fqFtTZ34vG14wbRMrud7-137" style="edgeStyle=orthogonalEdgeStyle;rounded=0;orthogonalLoop=1;jettySize=auto;html=1;entryX=0;entryY=0.5;entryDx=0;entryDy=0;exitX=0.5;exitY=1;exitDx=0;exitDy=0;" edge="1" parent="fqFtTZ34vG14wbRMrud7-63" source="fqFtTZ34vG14wbRMrud7-81" target="fqFtTZ34vG14wbRMrud7-88">
          <mxGeometry relative="1" as="geometry">
            <Array as="points">
              <mxPoint x="58" y="422" />
            </Array>
          </mxGeometry>
        </mxCell>
        <mxCell id="fqFtTZ34vG14wbRMrud7-81" value="Discovery Message On Server?" style="rhombus;whiteSpace=wrap;html=1;fontColor=#000000;fillColor=#ffffc0;strokeColor=#ff0000;" vertex="1" parent="fqFtTZ34vG14wbRMrud7-63">
          <mxGeometry x="18.393762183235864" y="350.46762886597935" width="80" height="50" as="geometry" />
        </mxCell>
        <mxCell id="fqFtTZ34vG14wbRMrud7-82" value="no" style="edgeStyle=orthogonalEdgeStyle;html=1;align=left;verticalAlign=bottom;endArrow=open;endSize=8;strokeColor=#ff0000;rounded=0;entryX=0;entryY=0.5;entryDx=0;entryDy=0;" edge="1" parent="fqFtTZ34vG14wbRMrud7-63" source="fqFtTZ34vG14wbRMrud7-81" target="fqFtTZ34vG14wbRMrud7-83">
          <mxGeometry x="-1" relative="1" as="geometry">
            <mxPoint x="140.21832358674465" y="349.2783505154639" as="targetPoint" />
          </mxGeometry>
        </mxCell>
        <mxCell id="fqFtTZ34vG14wbRMrud7-136" style="edgeStyle=orthogonalEdgeStyle;rounded=0;orthogonalLoop=1;jettySize=auto;html=1;exitX=0.5;exitY=1;exitDx=0;exitDy=0;entryX=0;entryY=0.5;entryDx=0;entryDy=0;" edge="1" parent="fqFtTZ34vG14wbRMrud7-63" source="fqFtTZ34vG14wbRMrud7-83" target="fqFtTZ34vG14wbRMrud7-88">
          <mxGeometry relative="1" as="geometry" />
        </mxCell>
        <mxCell id="fqFtTZ34vG14wbRMrud7-83" value="Send Discovery Message" style="rounded=1;whiteSpace=wrap;html=1;arcSize=40;fontColor=#000000;fillColor=#ffffc0;strokeColor=#ff0000;" vertex="1" parent="fqFtTZ34vG14wbRMrud7-63">
          <mxGeometry x="129.0001364522417" y="359.58762886597935" width="93.21637426900584" height="31.752577319587626" as="geometry" />
        </mxCell>
        <mxCell id="fqFtTZ34vG14wbRMrud7-84" value="Pulse LED" style="rounded=1;whiteSpace=wrap;html=1;arcSize=40;fontColor=#000000;fillColor=#ffffc0;strokeColor=#ff0000;" vertex="1" parent="fqFtTZ34vG14wbRMrud7-63">
          <mxGeometry x="129" y="198.57999999999998" width="93.22" height="20" as="geometry" />
        </mxCell>
        <mxCell id="fqFtTZ34vG14wbRMrud7-85" value="" style="edgeStyle=orthogonalEdgeStyle;html=1;verticalAlign=bottom;endArrow=open;endSize=8;strokeColor=#ff0000;rounded=0;entryX=0.5;entryY=0;entryDx=0;entryDy=0;" edge="1" parent="fqFtTZ34vG14wbRMrud7-63" source="fqFtTZ34vG14wbRMrud7-84" target="fqFtTZ34vG14wbRMrud7-76">
          <mxGeometry relative="1" as="geometry">
            <mxPoint x="31.46588693957115" y="228.6185567010309" as="targetPoint" />
          </mxGeometry>
        </mxCell>
        <mxCell id="fqFtTZ34vG14wbRMrud7-86" value="Pulse LED" style="rounded=1;whiteSpace=wrap;html=1;arcSize=40;fontColor=#000000;fillColor=#ffffc0;strokeColor=#ff0000;" vertex="1" parent="fqFtTZ34vG14wbRMrud7-63">
          <mxGeometry x="129" y="293.61" width="93.22" height="20" as="geometry" />
        </mxCell>
        <mxCell id="fqFtTZ34vG14wbRMrud7-87" value="" style="edgeStyle=orthogonalEdgeStyle;html=1;verticalAlign=bottom;endArrow=open;endSize=8;strokeColor=#ff0000;rounded=0;entryX=0.5;entryY=0;entryDx=0;entryDy=0;exitX=0.5;exitY=1;exitDx=0;exitDy=0;" edge="1" parent="fqFtTZ34vG14wbRMrud7-63" source="fqFtTZ34vG14wbRMrud7-86" target="fqFtTZ34vG14wbRMrud7-81">
          <mxGeometry relative="1" as="geometry">
            <mxPoint x="361.6072124756335" y="388.96907216494844" as="targetPoint" />
          </mxGeometry>
        </mxCell>
        <mxCell id="fqFtTZ34vG14wbRMrud7-88" value="" style="shape=sumEllipse;perimeter=ellipsePerimeter;html=1;backgroundOutline=1;" vertex="1" parent="fqFtTZ34vG14wbRMrud7-63">
          <mxGeometry x="221.78384015594543" y="410.00278350515464" width="23.30409356725146" height="23.81443298969072" as="geometry" />
        </mxCell>
        <mxCell id="fqFtTZ34vG14wbRMrud7-107" style="edgeStyle=orthogonalEdgeStyle;rounded=0;orthogonalLoop=1;jettySize=auto;html=1;entryX=1;entryY=0.5;entryDx=0;entryDy=0;" edge="1" parent="fqFtTZ34vG14wbRMrud7-63" source="fqFtTZ34vG14wbRMrud7-106" target="fqFtTZ34vG14wbRMrud7-64">
          <mxGeometry relative="1" as="geometry" />
        </mxCell>
        <mxCell id="fqFtTZ34vG14wbRMrud7-106" value="" style="ellipse;" vertex="1" parent="fqFtTZ34vG14wbRMrud7-63">
          <mxGeometry x="221.78265107212474" y="35.72164948453608" width="23.30409356725146" height="23.81443298969072" as="geometry" />
        </mxCell>
        <mxCell id="fqFtTZ34vG14wbRMrud7-92" value="&lt;b&gt;Operating State:&lt;/b&gt;&amp;nbsp;&lt;div&gt;Get Updates&lt;/div&gt;" style="rhombus;whiteSpace=wrap;html=1;fontColor=#000000;fillColor=#ffffc0;strokeColor=#ff0000;" vertex="1" parent="gu6PSxJLLUpwhg4ktaRB-1">
          <mxGeometry x="-1309.5545808966863" y="550.002268041237" width="100.98440545808967" height="55.567010309278345" as="geometry" />
        </mxCell>
        <mxCell id="fqFtTZ34vG14wbRMrud7-93" value="yes" style="edgeStyle=orthogonalEdgeStyle;html=1;align=left;verticalAlign=bottom;endArrow=open;endSize=8;strokeColor=#ff0000;rounded=0;entryX=0.75;entryY=0;entryDx=0;entryDy=0;exitX=0;exitY=0.5;exitDx=0;exitDy=0;" edge="1" parent="gu6PSxJLLUpwhg4ktaRB-1" source="fqFtTZ34vG14wbRMrud7-92" target="fqFtTZ34vG14wbRMrud7-63">
          <mxGeometry relative="1" as="geometry">
            <mxPoint x="-1312.8586744639376" y="565.5772164948453" as="targetPoint" />
            <Array as="points">
              <mxPoint x="-1324" y="578" />
              <mxPoint x="-1324" y="480" />
              <mxPoint x="-1403" y="480" />
            </Array>
          </mxGeometry>
        </mxCell>
        <mxCell id="fqFtTZ34vG14wbRMrud7-99" value="&lt;b&gt;Operating State:&lt;/b&gt;&amp;nbsp;&lt;div&gt;Publish Updates&lt;/div&gt;" style="rhombus;whiteSpace=wrap;html=1;fontColor=#000000;fillColor=#ffffc0;strokeColor=#ff0000;" vertex="1" parent="gu6PSxJLLUpwhg4ktaRB-1">
          <mxGeometry x="-1310.4645808966861" y="829.9964948453608" width="100.98440545808967" height="55.567010309278345" as="geometry" />
        </mxCell>
        <mxCell id="fqFtTZ34vG14wbRMrud7-100" value="yes" style="edgeStyle=orthogonalEdgeStyle;html=1;align=left;verticalAlign=bottom;endArrow=open;endSize=8;strokeColor=#ff0000;rounded=0;entryX=0.25;entryY=0;entryDx=0;entryDy=0;" edge="1" parent="gu6PSxJLLUpwhg4ktaRB-1" source="fqFtTZ34vG14wbRMrud7-99" target="fqFtTZ34vG14wbRMrud7-95">
          <mxGeometry x="-0.6309" y="-2" relative="1" as="geometry">
            <mxPoint x="-1390.0153021442493" y="724.3779381443298" as="targetPoint" />
            <mxPoint as="offset" />
          </mxGeometry>
        </mxCell>
        <mxCell id="gu6PSxJLLUpwhg4ktaRB-49" value="Prevent Sleep?" style="rhombus;whiteSpace=wrap;html=1;fontColor=#000000;fillColor=#ffffc0;strokeColor=#ff0000;" vertex="1" parent="gu6PSxJLLUpwhg4ktaRB-1">
          <mxGeometry x="-1310.4645029239766" y="911.0046391752577" width="101" height="55" as="geometry" />
        </mxCell>
        <mxCell id="fqFtTZ34vG14wbRMrud7-144" value="" style="edgeStyle=orthogonalEdgeStyle;rounded=0;orthogonalLoop=1;jettySize=auto;html=1;" edge="1" parent="gu6PSxJLLUpwhg4ktaRB-1" source="gu6PSxJLLUpwhg4ktaRB-52" target="gu6PSxJLLUpwhg4ktaRB-54">
          <mxGeometry relative="1" as="geometry" />
        </mxCell>
        <mxCell id="gu6PSxJLLUpwhg4ktaRB-52" value="Go To Sleep" style="rounded=1;whiteSpace=wrap;html=1;arcSize=40;fontColor=#000000;fillColor=#ffffc0;strokeColor=#ff0000;" vertex="1" parent="gu6PSxJLLUpwhg4ktaRB-1">
          <mxGeometry x="-1306.5705653021441" y="1010.9959793814432" width="93.21637426900584" height="31.752577319587626" as="geometry" />
        </mxCell>
        <mxCell id="gu6PSxJLLUpwhg4ktaRB-54" value="v" style="ellipse;html=1;shape=endState;fillColor=#000000;strokeColor=#ff0000;" vertex="1" parent="gu6PSxJLLUpwhg4ktaRB-1">
          <mxGeometry x="-1299.964424951267" y="1069.9955670103093" width="80" height="80" as="geometry" />
        </mxCell>
        <mxCell id="gu6PSxJLLUpwhg4ktaRB-51" value="no" style="edgeStyle=orthogonalEdgeStyle;html=1;align=left;verticalAlign=top;endArrow=open;endSize=8;strokeColor=#ff0000;rounded=0;" edge="1" parent="gu6PSxJLLUpwhg4ktaRB-1" source="gu6PSxJLLUpwhg4ktaRB-49">
          <mxGeometry x="-1" relative="1" as="geometry">
            <mxPoint x="-1260" y="1010" as="targetPoint" />
          </mxGeometry>
        </mxCell>
        <mxCell id="fqFtTZ34vG14wbRMrud7-95" value="PUBLISHING UPDATES" style="swimlane;whiteSpace=wrap;html=1;" vertex="1" parent="gu6PSxJLLUpwhg4ktaRB-1">
          <mxGeometry x="-1082.35" y="885.56" width="162.35" height="140" as="geometry" />
        </mxCell>
        <mxCell id="fqFtTZ34vG14wbRMrud7-97" style="edgeStyle=orthogonalEdgeStyle;rounded=0;orthogonalLoop=1;jettySize=auto;html=1;entryX=1;entryY=0.5;entryDx=0;entryDy=0;" edge="1" parent="fqFtTZ34vG14wbRMrud7-95" source="gu6PSxJLLUpwhg4ktaRB-47" target="fqFtTZ34vG14wbRMrud7-96">
          <mxGeometry relative="1" as="geometry" />
        </mxCell>
        <mxCell id="gu6PSxJLLUpwhg4ktaRB-47" value="Publish State" style="rounded=1;whiteSpace=wrap;html=1;arcSize=40;fontColor=#000000;fillColor=#ffffc0;strokeColor=#ff0000;" vertex="1" parent="fqFtTZ34vG14wbRMrud7-95">
          <mxGeometry x="34.56803118908382" y="64.12329896907215" width="93.21637426900584" height="31.752577319587626" as="geometry" />
        </mxCell>
        <mxCell id="fqFtTZ34vG14wbRMrud7-96" value="" style="shape=sumEllipse;perimeter=ellipsePerimeter;html=1;backgroundOutline=1;" vertex="1" parent="fqFtTZ34vG14wbRMrud7-95">
          <mxGeometry x="11.264171539961012" y="104.0721649484536" width="23.30409356725146" height="23.81443298969072" as="geometry" />
        </mxCell>
        <mxCell id="fqFtTZ34vG14wbRMrud7-109" style="edgeStyle=orthogonalEdgeStyle;rounded=0;orthogonalLoop=1;jettySize=auto;html=1;entryX=0.5;entryY=0;entryDx=0;entryDy=0;exitX=1;exitY=0.5;exitDx=0;exitDy=0;" edge="1" parent="fqFtTZ34vG14wbRMrud7-95" source="fqFtTZ34vG14wbRMrud7-108" target="gu6PSxJLLUpwhg4ktaRB-47">
          <mxGeometry relative="1" as="geometry" />
        </mxCell>
        <mxCell id="fqFtTZ34vG14wbRMrud7-108" value="" style="ellipse;" vertex="1" parent="fqFtTZ34vG14wbRMrud7-95">
          <mxGeometry x="11.264171539961012" y="30.00443298969072" width="23.30409356725146" height="23.81443298969072" as="geometry" />
        </mxCell>
      </root>
    </mxGraphModel>
  </diagram>
</mxfile>
